<?xml version="1.0" encoding="utf-8" standalone="no"?>
<!DOCTYPE svg PUBLIC "-//W3C//DTD SVG 1.1//EN"
  "http://www.w3.org/Graphics/SVG/1.1/DTD/svg11.dtd">
<svg xmlns:xlink="http://www.w3.org/1999/xlink" width="1000.835pt" height="205.901875pt" viewBox="0 0 1000.835 205.901875" xmlns="http://www.w3.org/2000/svg" version="1.1">
 <metadata>
  <rdf:RDF xmlns:dc="http://purl.org/dc/elements/1.1/" xmlns:cc="http://creativecommons.org/ns#" xmlns:rdf="http://www.w3.org/1999/02/22-rdf-syntax-ns#">
   <cc:Work>
    <dc:type rdf:resource="http://purl.org/dc/dcmitype/StillImage"/>
    <dc:date>2026-03-10T22:33:43.990328</dc:date>
    <dc:format>image/svg+xml</dc:format>
    <dc:creator>
     <cc:Agent>
      <dc:title>Matplotlib v3.10.5, https://matplotlib.org/</dc:title>
     </cc:Agent>
    </dc:creator>
   </cc:Work>
  </rdf:RDF>
 </metadata>
 <defs>
  <style type="text/css">*{stroke-linejoin: round; stroke-linecap: butt}</style>
 </defs>
 <g id="figure_1">
  <g id="patch_1">
   <path d="M 0 205.901875 
L 1000.835 205.901875 
L 1000.835 0 
L 0 0 
z
" style="fill: #ffffff"/>
  </g>
  <g id="axes_1">
   <g id="patch_2">
    <path d="M 26.925 166.41 
L 222.9875 166.41 
L 222.9875 30 
L 26.925 30 
z
" style="fill: #ffffff"/>
   </g>
   <g id="patch_3">
    <path d="M 35.836932 166.41 
L 65.543371 166.41 
L 65.543371 166.41 
L 35.836932 166.41 
z
" clip-path="url(#pdcec062d37)" style="fill: #1d3557; stroke: #1d3557; stroke-linejoin: miter"/>
   </g>
   <g id="patch_4">
    <path d="M 110.10303 166.41 
L 139.80947 166.41 
L 139.80947 36.495714 
L 110.10303 36.495714 
z
" clip-path="url(#pdcec062d37)" style="fill: #1d3557; stroke: #1d3557; stroke-linejoin: miter"/>
   </g>
   <g id="patch_5">
    <path d="M 184.369129 166.41 
L 214.075568 166.41 
L 214.075568 153.418571 
L 184.369129 153.418571 
z
" clip-path="url(#pdcec062d37)" style="fill: #1d3557; stroke: #1d3557; stroke-linejoin: miter"/>
   </g>
   <g id="matplotlib.axis_1">
    <g id="xtick_1">
     <g id="line2d_1">
      <defs>
       <path id="m363402e92f" d="M 0 0 
L 0 3.5 
" style="stroke: #000000; stroke-width: 0.8"/>
      </defs>
      <g>
       <use xlink:href="#m363402e92f" x="50.690152" y="166.41" style="stroke: #000000; stroke-width: 0.8"/>
      </g>
     </g>
     <g id="text_1">
      <!-- 1.0 -->
      <g transform="translate(42.738589 181.008437) scale(0.1 -0.1)">
       <defs>
        <path id="DejaVuSans-31" d="M 794 531 
L 1825 531 
L 1825 4091 
L 703 3866 
L 703 4441 
L 1819 4666 
L 2450 4666 
L 2450 531 
L 3481 531 
L 3481 0 
L 794 0 
L 794 531 
z
" transform="scale(0.015625)"/>
        <path id="DejaVuSans-2e" d="M 684 794 
L 1344 794 
L 1344 0 
L 684 0 
L 684 794 
z
" transform="scale(0.015625)"/>
        <path id="DejaVuSans-30" d="M 2034 4250 
Q 1547 4250 1301 3770 
Q 1056 3291 1056 2328 
Q 1056 1369 1301 889 
Q 1547 409 2034 409 
Q 2525 409 2770 889 
Q 3016 1369 3016 2328 
Q 3016 3291 2770 3770 
Q 2525 4250 2034 4250 
z
M 2034 4750 
Q 2819 4750 3233 4129 
Q 3647 3509 3647 2328 
Q 3647 1150 3233 529 
Q 2819 -91 2034 -91 
Q 1250 -91 836 529 
Q 422 1150 422 2328 
Q 422 3509 836 4129 
Q 1250 4750 2034 4750 
z
" transform="scale(0.015625)"/>
       </defs>
       <use xlink:href="#DejaVuSans-31"/>
       <use xlink:href="#DejaVuSans-2e" transform="translate(63.623047 0)"/>
       <use xlink:href="#DejaVuSans-30" transform="translate(95.410156 0)"/>
      </g>
     </g>
    </g>
    <g id="xtick_2">
     <g id="line2d_2">
      <g>
       <use xlink:href="#m363402e92f" x="87.823201" y="166.41" style="stroke: #000000; stroke-width: 0.8"/>
      </g>
     </g>
     <g id="text_2">
      <!-- 1.5 -->
      <g transform="translate(79.871638 181.008437) scale(0.1 -0.1)">
       <defs>
        <path id="DejaVuSans-35" d="M 691 4666 
L 3169 4666 
L 3169 4134 
L 1269 4134 
L 1269 2991 
Q 1406 3038 1543 3061 
Q 1681 3084 1819 3084 
Q 2600 3084 3056 2656 
Q 3513 2228 3513 1497 
Q 3513 744 3044 326 
Q 2575 -91 1722 -91 
Q 1428 -91 1123 -41 
Q 819 9 494 109 
L 494 744 
Q 775 591 1075 516 
Q 1375 441 1709 441 
Q 2250 441 2565 725 
Q 2881 1009 2881 1497 
Q 2881 1984 2565 2268 
Q 2250 2553 1709 2553 
Q 1456 2553 1204 2497 
Q 953 2441 691 2322 
L 691 4666 
z
" transform="scale(0.015625)"/>
       </defs>
       <use xlink:href="#DejaVuSans-31"/>
       <use xlink:href="#DejaVuSans-2e" transform="translate(63.623047 0)"/>
       <use xlink:href="#DejaVuSans-35" transform="translate(95.410156 0)"/>
      </g>
     </g>
    </g>
    <g id="xtick_3">
     <g id="line2d_3">
      <g>
       <use xlink:href="#m363402e92f" x="124.95625" y="166.41" style="stroke: #000000; stroke-width: 0.8"/>
      </g>
     </g>
     <g id="text_3">
      <!-- 2.0 -->
      <g transform="translate(117.004688 181.008437) scale(0.1 -0.1)">
       <defs>
        <path id="DejaVuSans-32" d="M 1228 531 
L 3431 531 
L 3431 0 
L 469 0 
L 469 531 
Q 828 903 1448 1529 
Q 2069 2156 2228 2338 
Q 2531 2678 2651 2914 
Q 2772 3150 2772 3378 
Q 2772 3750 2511 3984 
Q 2250 4219 1831 4219 
Q 1534 4219 1204 4116 
Q 875 4013 500 3803 
L 500 4441 
Q 881 4594 1212 4672 
Q 1544 4750 1819 4750 
Q 2544 4750 2975 4387 
Q 3406 4025 3406 3419 
Q 3406 3131 3298 2873 
Q 3191 2616 2906 2266 
Q 2828 2175 2409 1742 
Q 1991 1309 1228 531 
z
" transform="scale(0.015625)"/>
       </defs>
       <use xlink:href="#DejaVuSans-32"/>
       <use xlink:href="#DejaVuSans-2e" transform="translate(63.623047 0)"/>
       <use xlink:href="#DejaVuSans-30" transform="translate(95.410156 0)"/>
      </g>
     </g>
    </g>
    <g id="xtick_4">
     <g id="line2d_4">
      <g>
       <use xlink:href="#m363402e92f" x="162.089299" y="166.41" style="stroke: #000000; stroke-width: 0.8"/>
      </g>
     </g>
     <g id="text_4">
      <!-- 2.5 -->
      <g transform="translate(154.137737 181.008437) scale(0.1 -0.1)">
       <use xlink:href="#DejaVuSans-32"/>
       <use xlink:href="#DejaVuSans-2e" transform="translate(63.623047 0)"/>
       <use xlink:href="#DejaVuSans-35" transform="translate(95.410156 0)"/>
      </g>
     </g>
    </g>
    <g id="xtick_5">
     <g id="line2d_5">
      <g>
       <use xlink:href="#m363402e92f" x="199.222348" y="166.41" style="stroke: #000000; stroke-width: 0.8"/>
      </g>
     </g>
     <g id="text_5">
      <!-- 3.0 -->
      <g transform="translate(191.270786 181.008437) scale(0.1 -0.1)">
       <defs>
        <path id="DejaVuSans-33" d="M 2597 2516 
Q 3050 2419 3304 2112 
Q 3559 1806 3559 1356 
Q 3559 666 3084 287 
Q 2609 -91 1734 -91 
Q 1441 -91 1130 -33 
Q 819 25 488 141 
L 488 750 
Q 750 597 1062 519 
Q 1375 441 1716 441 
Q 2309 441 2620 675 
Q 2931 909 2931 1356 
Q 2931 1769 2642 2001 
Q 2353 2234 1838 2234 
L 1294 2234 
L 1294 2753 
L 1863 2753 
Q 2328 2753 2575 2939 
Q 2822 3125 2822 3475 
Q 2822 3834 2567 4026 
Q 2313 4219 1838 4219 
Q 1578 4219 1281 4162 
Q 984 4106 628 3988 
L 628 4550 
Q 988 4650 1302 4700 
Q 1616 4750 1894 4750 
Q 2613 4750 3031 4423 
Q 3450 4097 3450 3541 
Q 3450 3153 3228 2886 
Q 3006 2619 2597 2516 
z
" transform="scale(0.015625)"/>
       </defs>
       <use xlink:href="#DejaVuSans-33"/>
       <use xlink:href="#DejaVuSans-2e" transform="translate(63.623047 0)"/>
       <use xlink:href="#DejaVuSans-30" transform="translate(95.410156 0)"/>
      </g>
     </g>
    </g>
    <g id="text_6">
     <!-- k -->
     <g transform="translate(121.481875 196.20625) scale(0.12 -0.12)">
      <defs>
       <path id="DejaVuSans-6b" d="M 581 4863 
L 1159 4863 
L 1159 1991 
L 2875 3500 
L 3609 3500 
L 1753 1863 
L 3688 0 
L 2938 0 
L 1159 1709 
L 1159 0 
L 581 0 
L 581 4863 
z
" transform="scale(0.015625)"/>
      </defs>
      <use xlink:href="#DejaVuSans-6b"/>
     </g>
    </g>
   </g>
   <g id="matplotlib.axis_2">
    <g id="ytick_1">
     <g id="line2d_6">
      <defs>
       <path id="m9c40f68ee4" d="M 0 0 
L -3.5 0 
" style="stroke: #000000; stroke-width: 0.8"/>
      </defs>
      <g>
       <use xlink:href="#m9c40f68ee4" x="26.925" y="166.41" style="stroke: #000000; stroke-width: 0.8"/>
      </g>
     </g>
     <g id="text_7">
      <!-- 0 -->
      <g transform="translate(13.5625 170.209219) scale(0.1 -0.1)">
       <use xlink:href="#DejaVuSans-30"/>
      </g>
     </g>
    </g>
    <g id="ytick_2">
     <g id="line2d_7">
      <g>
       <use xlink:href="#m9c40f68ee4" x="26.925" y="133.931429" style="stroke: #000000; stroke-width: 0.8"/>
      </g>
     </g>
     <g id="text_8">
      <!-- 5 -->
      <g transform="translate(13.5625 137.730647) scale(0.1 -0.1)">
       <use xlink:href="#DejaVuSans-35"/>
      </g>
     </g>
    </g>
    <g id="ytick_3">
     <g id="line2d_8">
      <g>
       <use xlink:href="#m9c40f68ee4" x="26.925" y="101.452857" style="stroke: #000000; stroke-width: 0.8"/>
      </g>
     </g>
     <g id="text_9">
      <!-- 10 -->
      <g transform="translate(7.2 105.252076) scale(0.1 -0.1)">
       <use xlink:href="#DejaVuSans-31"/>
       <use xlink:href="#DejaVuSans-30" transform="translate(63.623047 0)"/>
      </g>
     </g>
    </g>
    <g id="ytick_4">
     <g id="line2d_9">
      <g>
       <use xlink:href="#m9c40f68ee4" x="26.925" y="68.974286" style="stroke: #000000; stroke-width: 0.8"/>
      </g>
     </g>
     <g id="text_10">
      <!-- 15 -->
      <g transform="translate(7.2 72.773504) scale(0.1 -0.1)">
       <use xlink:href="#DejaVuSans-31"/>
       <use xlink:href="#DejaVuSans-35" transform="translate(63.623047 0)"/>
      </g>
     </g>
    </g>
    <g id="ytick_5">
     <g id="line2d_10">
      <g>
       <use xlink:href="#m9c40f68ee4" x="26.925" y="36.495714" style="stroke: #000000; stroke-width: 0.8"/>
      </g>
     </g>
     <g id="text_11">
      <!-- 20 -->
      <g transform="translate(7.2 40.294933) scale(0.1 -0.1)">
       <use xlink:href="#DejaVuSans-32"/>
       <use xlink:href="#DejaVuSans-30" transform="translate(63.623047 0)"/>
      </g>
     </g>
    </g>
   </g>
   <g id="patch_6">
    <path d="M 26.925 166.41 
L 26.925 30 
" style="fill: none; stroke: #000000; stroke-width: 0.8; stroke-linejoin: miter; stroke-linecap: square"/>
   </g>
   <g id="patch_7">
    <path d="M 222.9875 166.41 
L 222.9875 30 
" style="fill: none; stroke: #000000; stroke-width: 0.8; stroke-linejoin: miter; stroke-linecap: square"/>
   </g>
   <g id="patch_8">
    <path d="M 26.925 166.41 
L 222.9875 166.41 
" style="fill: none; stroke: #000000; stroke-width: 0.8; stroke-linejoin: miter; stroke-linecap: square"/>
   </g>
   <g id="patch_9">
    <path d="M 26.925 30 
L 222.9875 30 
" style="fill: none; stroke: #000000; stroke-width: 0.8; stroke-linejoin: miter; stroke-linecap: square"/>
   </g>
   <g id="text_12">
    <!-- $\widehat{q}(k)$ -->
    <g transform="translate(110.95625 24) scale(0.14 -0.14)">
     <defs>
      <path id="STIXSizeTwoSym-Regular-302" d="M -1094 3610 
L -1728 3610 
L -4224 4538 
L -6726 3610 
L -7360 3610 
L -4378 4973 
L -4070 4973 
L -1094 3610 
z
" transform="scale(0.015625)"/>
      <path id="DejaVuSans-Oblique-71" d="M 2669 525 
Q 2438 222 2123 65 
Q 1809 -91 1428 -91 
Q 897 -91 595 267 
Q 294 625 294 1253 
Q 294 1759 480 2231 
Q 666 2703 1013 3078 
Q 1238 3322 1530 3453 
Q 1822 3584 2144 3584 
Q 2531 3584 2781 3431 
Q 3031 3278 3144 2969 
L 3244 3494 
L 3822 3494 
L 2888 -1319 
L 2309 -1319 
L 2669 525 
z
M 891 1338 
Q 891 875 1084 633 
Q 1278 391 1644 391 
Q 2188 391 2572 911 
Q 2956 1431 2956 2175 
Q 2956 2625 2757 2864 
Q 2559 3103 2188 3103 
Q 1916 3103 1684 2976 
Q 1453 2850 1281 2606 
Q 1100 2350 995 2006 
Q 891 1663 891 1338 
z
" transform="scale(0.015625)"/>
      <path id="DejaVuSans-28" d="M 1984 4856 
Q 1566 4138 1362 3434 
Q 1159 2731 1159 2009 
Q 1159 1288 1364 580 
Q 1569 -128 1984 -844 
L 1484 -844 
Q 1016 -109 783 600 
Q 550 1309 550 2009 
Q 550 2706 781 3412 
Q 1013 4119 1484 4856 
L 1984 4856 
z
" transform="scale(0.015625)"/>
      <path id="DejaVuSans-Oblique-6b" d="M 1172 4863 
L 1747 4863 
L 1197 2028 
L 3169 3500 
L 3916 3500 
L 1716 1825 
L 3322 0 
L 2625 0 
L 1131 1709 
L 800 0 
L 225 0 
L 1172 4863 
z
" transform="scale(0.015625)"/>
      <path id="DejaVuSans-29" d="M 513 4856 
L 1013 4856 
Q 1481 4119 1714 3412 
Q 1947 2706 1947 2009 
Q 1947 1309 1714 600 
Q 1481 -109 1013 -844 
L 513 -844 
Q 928 -128 1133 580 
Q 1338 1288 1338 2009 
Q 1338 2731 1133 3434 
Q 928 4138 513 4856 
z
" transform="scale(0.015625)"/>
     </defs>
     <use xlink:href="#STIXSizeTwoSym-Regular-302" transform="translate(82.478516 32.5) scale(0.64834)"/>
     <use xlink:href="#DejaVuSans-Oblique-71" transform="translate(0 0.65625)"/>
     <use xlink:href="#DejaVuSans-28" transform="translate(63.476562 0.65625)"/>
     <use xlink:href="#DejaVuSans-Oblique-6b" transform="translate(102.490234 0.65625)"/>
     <use xlink:href="#DejaVuSans-29" transform="translate(160.400391 0.65625)"/>
    </g>
   </g>
  </g>
  <g id="axes_2">
   <g id="patch_10">
    <path d="M 283.8075 166.41 
L 479.87 166.41 
L 479.87 30 
L 283.8075 30 
z
" style="fill: #ffffff"/>
   </g>
   <g id="matplotlib.axis_3">
    <g id="xtick_6">
     <g id="line2d_11">
      <g>
       <use xlink:href="#m363402e92f" x="283.8075" y="166.41" style="stroke: #000000; stroke-width: 0.8"/>
      </g>
     </g>
     <g id="text_13">
      <!-- 0 -->
      <g transform="translate(280.62625 181.008437) scale(0.1 -0.1)">
       <use xlink:href="#DejaVuSans-30"/>
      </g>
     </g>
    </g>
    <g id="xtick_7">
     <g id="line2d_12">
      <g>
       <use xlink:href="#m363402e92f" x="335.814693" y="166.41" style="stroke: #000000; stroke-width: 0.8"/>
      </g>
     </g>
     <g id="text_14">
      <!-- 5 -->
      <g transform="translate(332.633443 181.008437) scale(0.1 -0.1)">
       <use xlink:href="#DejaVuSans-35"/>
      </g>
     </g>
    </g>
    <g id="xtick_8">
     <g id="line2d_13">
      <g>
       <use xlink:href="#m363402e92f" x="387.821887" y="166.41" style="stroke: #000000; stroke-width: 0.8"/>
      </g>
     </g>
     <g id="text_15">
      <!-- 10 -->
      <g transform="translate(381.459387 181.008437) scale(0.1 -0.1)">
       <use xlink:href="#DejaVuSans-31"/>
       <use xlink:href="#DejaVuSans-30" transform="translate(63.623047 0)"/>
      </g>
     </g>
    </g>
    <g id="xtick_9">
     <g id="line2d_14">
      <g>
       <use xlink:href="#m363402e92f" x="439.82908" y="166.41" style="stroke: #000000; stroke-width: 0.8"/>
      </g>
     </g>
     <g id="text_16">
      <!-- 15 -->
      <g transform="translate(433.46658 181.008437) scale(0.1 -0.1)">
       <use xlink:href="#DejaVuSans-31"/>
       <use xlink:href="#DejaVuSans-35" transform="translate(63.623047 0)"/>
      </g>
     </g>
    </g>
    <g id="text_17">
     <!-- t -->
     <g transform="translate(379.486563 196.20625) scale(0.12 -0.12)">
      <defs>
       <path id="DejaVuSans-74" d="M 1172 4494 
L 1172 3500 
L 2356 3500 
L 2356 3053 
L 1172 3053 
L 1172 1153 
Q 1172 725 1289 603 
Q 1406 481 1766 481 
L 2356 481 
L 2356 0 
L 1766 0 
Q 1100 0 847 248 
Q 594 497 594 1153 
L 594 3053 
L 172 3053 
L 172 3500 
L 594 3500 
L 594 4494 
L 1172 4494 
z
" transform="scale(0.015625)"/>
      </defs>
      <use xlink:href="#DejaVuSans-74"/>
     </g>
    </g>
   </g>
   <g id="matplotlib.axis_4">
    <g id="ytick_6">
     <g id="line2d_15">
      <g>
       <use xlink:href="#m9c40f68ee4" x="283.8075" y="144.088364" style="stroke: #000000; stroke-width: 0.8"/>
      </g>
     </g>
     <g id="text_18">
      <!-- −0.05 -->
      <g transform="translate(246.162188 147.887582) scale(0.1 -0.1)">
       <defs>
        <path id="DejaVuSans-2212" d="M 678 2272 
L 4684 2272 
L 4684 1741 
L 678 1741 
L 678 2272 
z
" transform="scale(0.015625)"/>
       </defs>
       <use xlink:href="#DejaVuSans-2212"/>
       <use xlink:href="#DejaVuSans-30" transform="translate(83.789062 0)"/>
       <use xlink:href="#DejaVuSans-2e" transform="translate(147.412109 0)"/>
       <use xlink:href="#DejaVuSans-30" transform="translate(179.199219 0)"/>
       <use xlink:href="#DejaVuSans-35" transform="translate(242.822266 0)"/>
      </g>
     </g>
    </g>
    <g id="ytick_7">
     <g id="line2d_16">
      <g>
       <use xlink:href="#m9c40f68ee4" x="283.8075" y="104.405455" style="stroke: #000000; stroke-width: 0.8"/>
      </g>
     </g>
     <g id="text_19">
      <!-- 0.00 -->
      <g transform="translate(254.541875 108.204673) scale(0.1 -0.1)">
       <use xlink:href="#DejaVuSans-30"/>
       <use xlink:href="#DejaVuSans-2e" transform="translate(63.623047 0)"/>
       <use xlink:href="#DejaVuSans-30" transform="translate(95.410156 0)"/>
       <use xlink:href="#DejaVuSans-30" transform="translate(159.033203 0)"/>
      </g>
     </g>
    </g>
    <g id="ytick_8">
     <g id="line2d_17">
      <g>
       <use xlink:href="#m9c40f68ee4" x="283.8075" y="64.722545" style="stroke: #000000; stroke-width: 0.8"/>
      </g>
     </g>
     <g id="text_20">
      <!-- 0.05 -->
      <g transform="translate(254.541875 68.521764) scale(0.1 -0.1)">
       <use xlink:href="#DejaVuSans-30"/>
       <use xlink:href="#DejaVuSans-2e" transform="translate(63.623047 0)"/>
       <use xlink:href="#DejaVuSans-30" transform="translate(95.410156 0)"/>
       <use xlink:href="#DejaVuSans-35" transform="translate(159.033203 0)"/>
      </g>
     </g>
    </g>
   </g>
   <g id="line2d_18">
    <path d="M 283.8075 36.200455 
L 284.318079 36.304999 
L 284.828659 36.618163 
L 285.339238 37.13855 
L 286.105107 38.302343 
L 286.870977 39.915314 
L 287.892135 42.736341 
L 288.913294 46.277539 
L 290.189743 51.62261 
L 291.721481 59.194601 
L 293.508509 69.269287 
L 296.316696 86.68456 
L 300.656621 113.618471 
L 302.698939 124.939643 
L 304.485967 133.696229 
L 306.017705 140.228775 
L 307.549443 145.814935 
L 308.825892 149.740041 
L 310.10234 153.010559 
L 311.378789 155.643794 
L 312.399948 157.305802 
L 313.421107 158.584616 
L 314.442266 159.490127 
L 315.208135 159.929062 
L 315.974004 160.164715 
L 316.739873 160.19834 
L 317.505742 160.030117 
L 318.271611 159.659146 
L 319.03748 159.083489 
L 320.058639 157.99245 
L 321.079798 156.523373 
L 322.100957 154.665653 
L 323.377406 151.779929 
L 324.653854 148.249289 
L 325.930303 144.059197 
L 327.462041 138.155054 
L 328.993779 131.314816 
L 330.780807 122.230414 
L 332.823125 110.605909 
L 335.631312 93.186359 
L 339.971237 66.279836 
L 341.758265 56.545269 
L 343.290003 49.369657 
L 344.566452 44.420483 
L 345.587611 41.232427 
L 346.60877 38.790795 
L 347.374639 37.475761 
L 348.140508 36.618163 
L 348.651087 36.304999 
L 349.161667 36.200455 
L 349.672246 36.304999 
L 350.182826 36.618163 
L 350.693405 37.13855 
L 351.459274 38.302343 
L 352.225143 39.915314 
L 353.246302 42.736341 
L 354.267461 46.277539 
L 355.54391 51.62261 
L 357.075648 59.194601 
L 358.862676 69.269287 
L 361.670863 86.68456 
L 366.010788 113.618471 
L 368.053105 124.939643 
L 369.840133 133.696229 
L 371.371872 140.228775 
L 372.90361 145.814935 
L 374.180059 149.740041 
L 375.456507 153.010559 
L 376.732956 155.643794 
L 377.754115 157.305802 
L 378.775273 158.584616 
L 379.796432 159.490127 
L 380.562301 159.929062 
L 381.328171 160.164715 
L 382.09404 160.19834 
L 382.859909 160.030117 
L 383.625778 159.659146 
L 384.391647 159.083489 
L 385.412806 157.99245 
L 386.433965 156.523373 
L 387.455124 154.665653 
L 388.731572 151.779929 
L 390.008021 148.249289 
L 391.284469 144.059197 
L 392.816208 138.155054 
L 394.347946 131.314816 
L 396.134974 122.230414 
L 398.177292 110.605909 
L 400.985479 93.186359 
L 405.325404 66.279836 
L 407.112432 56.545269 
L 408.64417 49.369657 
L 409.920618 44.420483 
L 410.941777 41.232427 
L 411.962936 38.790795 
L 412.728805 37.475761 
L 413.494674 36.618163 
L 414.005254 36.304999 
L 414.515833 36.200455 
L 415.026413 36.304999 
L 415.536992 36.618163 
L 416.047572 37.13855 
L 416.813441 38.302343 
L 417.57931 39.915314 
L 418.600469 42.736341 
L 419.621628 46.277539 
L 420.898076 51.62261 
L 422.429814 59.194601 
L 424.216842 69.269287 
L 427.025029 86.68456 
L 431.364954 113.618471 
L 433.407272 124.939643 
L 435.1943 133.696229 
L 436.726038 140.228775 
L 438.257777 145.814935 
L 439.534225 149.740041 
L 440.810674 153.010559 
L 442.087122 155.643794 
L 443.108281 157.305802 
L 444.12944 158.584616 
L 445.150599 159.490127 
L 445.916468 159.929062 
L 446.682337 160.164715 
L 447.448206 160.19834 
L 448.214076 160.030117 
L 448.979945 159.659146 
L 449.745814 159.083489 
L 450.766973 157.99245 
L 451.788132 156.523373 
L 452.80929 154.665653 
L 454.085739 151.779929 
L 455.362188 148.249289 
L 456.638636 144.059197 
L 458.170374 138.155054 
L 459.702113 131.314816 
L 461.489141 122.230414 
L 463.531458 110.605909 
L 466.339645 93.186359 
L 470.67957 66.279836 
L 472.466598 56.545269 
L 473.998337 49.369657 
L 475.274785 44.420483 
L 476.295944 41.232427 
L 477.317103 38.790795 
L 478.082972 37.475761 
L 478.848841 36.618163 
L 479.359421 36.304999 
L 479.61471 36.226598 
L 479.61471 36.226598 
" clip-path="url(#p1debcd35ae)" style="fill: none; stroke: #000000; stroke-width: 5; stroke-linecap: square"/>
   </g>
   <g id="patch_11">
    <path d="M 283.8075 166.41 
L 283.8075 30 
" style="fill: none; stroke: #000000; stroke-width: 0.8; stroke-linejoin: miter; stroke-linecap: square"/>
   </g>
   <g id="patch_12">
    <path d="M 479.87 166.41 
L 479.87 30 
" style="fill: none; stroke: #000000; stroke-width: 0.8; stroke-linejoin: miter; stroke-linecap: square"/>
   </g>
   <g id="patch_13">
    <path d="M 283.8075 166.41 
L 479.87 166.41 
" style="fill: none; stroke: #000000; stroke-width: 0.8; stroke-linejoin: miter; stroke-linecap: square"/>
   </g>
   <g id="patch_14">
    <path d="M 283.8075 30 
L 479.87 30 
" style="fill: none; stroke: #000000; stroke-width: 0.8; stroke-linejoin: miter; stroke-linecap: square"/>
   </g>
   <g id="text_21">
    <!-- $q(t)$ -->
    <g transform="translate(369.16875 24) scale(0.14 -0.14)">
     <defs>
      <path id="DejaVuSans-Oblique-74" d="M 2706 3500 
L 2619 3053 
L 1472 3053 
L 1100 1153 
Q 1081 1047 1072 975 
Q 1063 903 1063 863 
Q 1063 663 1183 572 
Q 1303 481 1569 481 
L 2150 481 
L 2053 0 
L 1503 0 
Q 991 0 739 200 
Q 488 400 488 806 
Q 488 878 497 964 
Q 506 1050 525 1153 
L 897 3053 
L 409 3053 
L 500 3500 
L 978 3500 
L 1172 4494 
L 1747 4494 
L 1556 3500 
L 2706 3500 
z
" transform="scale(0.015625)"/>
     </defs>
     <use xlink:href="#DejaVuSans-Oblique-71" transform="translate(0 0.125)"/>
     <use xlink:href="#DejaVuSans-28" transform="translate(63.476562 0.125)"/>
     <use xlink:href="#DejaVuSans-Oblique-74" transform="translate(102.490234 0.125)"/>
     <use xlink:href="#DejaVuSans-29" transform="translate(141.699219 0.125)"/>
    </g>
   </g>
  </g>
  <g id="axes_3">
   <g id="patch_15">
    <path d="M 540.69 166.41 
L 736.7525 166.41 
L 736.7525 30 
L 540.69 30 
z
" style="fill: #ffffff"/>
   </g>
   <g id="matplotlib.axis_5">
    <g id="xtick_10">
     <g id="line2d_19">
      <g>
       <use xlink:href="#m363402e92f" x="540.69" y="166.41" style="stroke: #000000; stroke-width: 0.8"/>
      </g>
     </g>
     <g id="text_22">
      <!-- 0 -->
      <g transform="translate(537.50875 181.008437) scale(0.1 -0.1)">
       <use xlink:href="#DejaVuSans-30"/>
      </g>
     </g>
    </g>
    <g id="xtick_11">
     <g id="line2d_20">
      <g>
       <use xlink:href="#m363402e92f" x="592.697193" y="166.41" style="stroke: #000000; stroke-width: 0.8"/>
      </g>
     </g>
     <g id="text_23">
      <!-- 5 -->
      <g transform="translate(589.515943 181.008437) scale(0.1 -0.1)">
       <use xlink:href="#DejaVuSans-35"/>
      </g>
     </g>
    </g>
    <g id="xtick_12">
     <g id="line2d_21">
      <g>
       <use xlink:href="#m363402e92f" x="644.704387" y="166.41" style="stroke: #000000; stroke-width: 0.8"/>
      </g>
     </g>
     <g id="text_24">
      <!-- 10 -->
      <g transform="translate(638.341887 181.008437) scale(0.1 -0.1)">
       <use xlink:href="#DejaVuSans-31"/>
       <use xlink:href="#DejaVuSans-30" transform="translate(63.623047 0)"/>
      </g>
     </g>
    </g>
    <g id="xtick_13">
     <g id="line2d_22">
      <g>
       <use xlink:href="#m363402e92f" x="696.71158" y="166.41" style="stroke: #000000; stroke-width: 0.8"/>
      </g>
     </g>
     <g id="text_25">
      <!-- 15 -->
      <g transform="translate(690.34908 181.008437) scale(0.1 -0.1)">
       <use xlink:href="#DejaVuSans-31"/>
       <use xlink:href="#DejaVuSans-35" transform="translate(63.623047 0)"/>
      </g>
     </g>
    </g>
    <g id="text_26">
     <!-- t -->
     <g transform="translate(636.369062 196.20625) scale(0.12 -0.12)">
      <use xlink:href="#DejaVuSans-74"/>
     </g>
    </g>
   </g>
   <g id="matplotlib.axis_6">
    <g id="ytick_9">
     <g id="line2d_23">
      <g>
       <use xlink:href="#m9c40f68ee4" x="540.69" y="141.573893" style="stroke: #000000; stroke-width: 0.8"/>
      </g>
     </g>
     <g id="text_27">
      <!-- −0.0002 -->
      <g transform="translate(490.319687 145.373111) scale(0.1 -0.1)">
       <use xlink:href="#DejaVuSans-2212"/>
       <use xlink:href="#DejaVuSans-30" transform="translate(83.789062 0)"/>
       <use xlink:href="#DejaVuSans-2e" transform="translate(147.412109 0)"/>
       <use xlink:href="#DejaVuSans-30" transform="translate(179.199219 0)"/>
       <use xlink:href="#DejaVuSans-30" transform="translate(242.822266 0)"/>
       <use xlink:href="#DejaVuSans-30" transform="translate(306.445312 0)"/>
       <use xlink:href="#DejaVuSans-32" transform="translate(370.068359 0)"/>
      </g>
     </g>
    </g>
    <g id="ytick_10">
     <g id="line2d_24">
      <g>
       <use xlink:href="#m9c40f68ee4" x="540.69" y="116.324775" style="stroke: #000000; stroke-width: 0.8"/>
      </g>
     </g>
     <g id="text_28">
      <!-- 0.0000 -->
      <g transform="translate(498.699375 120.123994) scale(0.1 -0.1)">
       <use xlink:href="#DejaVuSans-30"/>
       <use xlink:href="#DejaVuSans-2e" transform="translate(63.623047 0)"/>
       <use xlink:href="#DejaVuSans-30" transform="translate(95.410156 0)"/>
       <use xlink:href="#DejaVuSans-30" transform="translate(159.033203 0)"/>
       <use xlink:href="#DejaVuSans-30" transform="translate(222.65625 0)"/>
       <use xlink:href="#DejaVuSans-30" transform="translate(286.279297 0)"/>
      </g>
     </g>
    </g>
    <g id="ytick_11">
     <g id="line2d_25">
      <g>
       <use xlink:href="#m9c40f68ee4" x="540.69" y="91.075657" style="stroke: #000000; stroke-width: 0.8"/>
      </g>
     </g>
     <g id="text_29">
      <!-- 0.0002 -->
      <g transform="translate(498.699375 94.874876) scale(0.1 -0.1)">
       <use xlink:href="#DejaVuSans-30"/>
       <use xlink:href="#DejaVuSans-2e" transform="translate(63.623047 0)"/>
       <use xlink:href="#DejaVuSans-30" transform="translate(95.410156 0)"/>
       <use xlink:href="#DejaVuSans-30" transform="translate(159.033203 0)"/>
       <use xlink:href="#DejaVuSans-30" transform="translate(222.65625 0)"/>
       <use xlink:href="#DejaVuSans-32" transform="translate(286.279297 0)"/>
      </g>
     </g>
    </g>
    <g id="ytick_12">
     <g id="line2d_26">
      <g>
       <use xlink:href="#m9c40f68ee4" x="540.69" y="65.826539" style="stroke: #000000; stroke-width: 0.8"/>
      </g>
     </g>
     <g id="text_30">
      <!-- 0.0004 -->
      <g transform="translate(498.699375 69.625758) scale(0.1 -0.1)">
       <defs>
        <path id="DejaVuSans-34" d="M 2419 4116 
L 825 1625 
L 2419 1625 
L 2419 4116 
z
M 2253 4666 
L 3047 4666 
L 3047 1625 
L 3713 1625 
L 3713 1100 
L 3047 1100 
L 3047 0 
L 2419 0 
L 2419 1100 
L 313 1100 
L 313 1709 
L 2253 4666 
z
" transform="scale(0.015625)"/>
       </defs>
       <use xlink:href="#DejaVuSans-30"/>
       <use xlink:href="#DejaVuSans-2e" transform="translate(63.623047 0)"/>
       <use xlink:href="#DejaVuSans-30" transform="translate(95.410156 0)"/>
       <use xlink:href="#DejaVuSans-30" transform="translate(159.033203 0)"/>
       <use xlink:href="#DejaVuSans-30" transform="translate(222.65625 0)"/>
       <use xlink:href="#DejaVuSans-34" transform="translate(286.279297 0)"/>
      </g>
     </g>
    </g>
    <g id="ytick_13">
     <g id="line2d_27">
      <g>
       <use xlink:href="#m9c40f68ee4" x="540.69" y="40.577422" style="stroke: #000000; stroke-width: 0.8"/>
      </g>
     </g>
     <g id="text_31">
      <!-- 0.0006 -->
      <g transform="translate(498.699375 44.37664) scale(0.1 -0.1)">
       <defs>
        <path id="DejaVuSans-36" d="M 2113 2584 
Q 1688 2584 1439 2293 
Q 1191 2003 1191 1497 
Q 1191 994 1439 701 
Q 1688 409 2113 409 
Q 2538 409 2786 701 
Q 3034 994 3034 1497 
Q 3034 2003 2786 2293 
Q 2538 2584 2113 2584 
z
M 3366 4563 
L 3366 3988 
Q 3128 4100 2886 4159 
Q 2644 4219 2406 4219 
Q 1781 4219 1451 3797 
Q 1122 3375 1075 2522 
Q 1259 2794 1537 2939 
Q 1816 3084 2150 3084 
Q 2853 3084 3261 2657 
Q 3669 2231 3669 1497 
Q 3669 778 3244 343 
Q 2819 -91 2113 -91 
Q 1303 -91 875 529 
Q 447 1150 447 2328 
Q 447 3434 972 4092 
Q 1497 4750 2381 4750 
Q 2619 4750 2861 4703 
Q 3103 4656 3366 4563 
z
" transform="scale(0.015625)"/>
       </defs>
       <use xlink:href="#DejaVuSans-30"/>
       <use xlink:href="#DejaVuSans-2e" transform="translate(63.623047 0)"/>
       <use xlink:href="#DejaVuSans-30" transform="translate(95.410156 0)"/>
       <use xlink:href="#DejaVuSans-30" transform="translate(159.033203 0)"/>
       <use xlink:href="#DejaVuSans-30" transform="translate(222.65625 0)"/>
       <use xlink:href="#DejaVuSans-36" transform="translate(286.279297 0)"/>
      </g>
     </g>
    </g>
   </g>
   <g id="line2d_28">
    <path d="M 540.69 36.200455 
L 540.94529 36.292555 
L 541.200579 36.568332 
L 541.711159 37.663577 
L 542.221738 39.461293 
L 542.987607 43.382143 
L 543.753477 48.592497 
L 544.774635 57.097896 
L 546.816953 76.719633 
L 548.603981 92.98784 
L 549.62514 100.65479 
L 550.646299 106.733625 
L 551.412168 110.19515 
L 552.178037 112.752718 
L 552.943906 114.496943 
L 553.709775 115.559758 
L 554.475645 116.101521 
L 555.241514 116.297498 
L 557.539121 116.522254 
L 558.30499 116.960659 
L 559.070859 117.75499 
L 559.836729 118.96117 
L 560.602598 120.602255 
L 561.623757 123.450285 
L 562.644915 126.96713 
L 564.176654 133.156357 
L 568.261289 150.29519 
L 569.537738 154.467402 
L 570.558896 157.069802 
L 571.324766 158.534064 
L 572.090635 159.551143 
L 572.601214 159.971945 
L 573.111794 160.183114 
L 573.622373 160.183114 
L 574.132952 159.971945 
L 574.643532 159.551143 
L 575.409401 158.534064 
L 576.17527 157.069802 
L 577.196429 154.467402 
L 578.217588 151.202199 
L 579.494036 146.367305 
L 581.536354 137.60819 
L 583.833962 127.934267 
L 585.11041 123.450285 
L 586.131569 120.602255 
L 586.897438 118.96117 
L 587.663307 117.75499 
L 588.429176 116.960659 
L 589.195046 116.522254 
L 589.960915 116.350516 
L 592.258522 116.101521 
L 592.769102 115.789763 
L 593.279681 115.271737 
L 593.79026 114.496943 
L 594.30084 113.418714 
L 595.066709 111.14462 
L 595.832578 107.991447 
L 596.598447 103.902467 
L 597.619606 97.006815 
L 598.896055 86.359646 
L 600.938372 66.726113 
L 602.470111 52.658301 
L 603.49127 44.987197 
L 604.257139 40.611466 
L 605.023008 37.663577 
L 605.533587 36.568332 
L 605.788877 36.292555 
L 606.044167 36.200455 
L 606.299456 36.292555 
L 606.554746 36.568332 
L 607.065326 37.663577 
L 607.575905 39.461293 
L 608.341774 43.382143 
L 609.107643 48.592497 
L 610.128802 57.097896 
L 612.17112 76.719633 
L 613.958148 92.98784 
L 614.979307 100.65479 
L 616.000465 106.733625 
L 616.766335 110.19515 
L 617.532204 112.752718 
L 618.298073 114.496943 
L 619.063942 115.559758 
L 619.829811 116.101521 
L 620.59568 116.297498 
L 622.893288 116.522254 
L 623.659157 116.960659 
L 624.425026 117.75499 
L 625.190895 118.96117 
L 625.956764 120.602255 
L 626.977923 123.450285 
L 627.999082 126.96713 
L 629.53082 133.156357 
L 633.615456 150.29519 
L 634.891904 154.467402 
L 635.913063 157.069802 
L 636.678932 158.534064 
L 637.444801 159.551143 
L 637.955381 159.971945 
L 638.46596 160.183114 
L 638.97654 160.183114 
L 639.487119 159.971945 
L 639.997699 159.551143 
L 640.763568 158.534064 
L 641.529437 157.069802 
L 642.550596 154.467402 
L 643.571755 151.202199 
L 644.848203 146.367305 
L 646.890521 137.60819 
L 649.188128 127.934267 
L 650.464577 123.450285 
L 651.485736 120.602255 
L 652.251605 118.96117 
L 653.017474 117.75499 
L 653.783343 116.960659 
L 654.549212 116.522254 
L 655.315081 116.350516 
L 657.612689 116.101521 
L 658.123268 115.789763 
L 658.633848 115.271737 
L 659.144427 114.496943 
L 659.655007 113.418714 
L 660.420876 111.14462 
L 661.186745 107.991447 
L 661.952614 103.902467 
L 662.973773 97.006815 
L 664.250221 86.359646 
L 666.292539 66.726113 
L 667.824277 52.658301 
L 668.845436 44.987197 
L 669.611305 40.611466 
L 670.377174 37.663577 
L 670.887754 36.568332 
L 671.143044 36.292555 
L 671.398333 36.200455 
L 671.653623 36.292555 
L 671.908913 36.568332 
L 672.419492 37.663577 
L 672.930072 39.461293 
L 673.695941 43.382143 
L 674.46181 48.592497 
L 675.482969 57.097896 
L 677.525286 76.719633 
L 679.312314 92.98784 
L 680.333473 100.65479 
L 681.354632 106.733625 
L 682.120501 110.19515 
L 682.88637 112.752718 
L 683.65224 114.496943 
L 684.418109 115.559758 
L 685.183978 116.101521 
L 685.949847 116.297498 
L 688.247454 116.522254 
L 689.013324 116.960659 
L 689.779193 117.75499 
L 690.545062 118.96117 
L 691.310931 120.602255 
L 692.33209 123.450285 
L 693.353249 126.96713 
L 694.884987 133.156357 
L 698.969622 150.29519 
L 700.246071 154.467402 
L 701.26723 157.069802 
L 702.033099 158.534064 
L 702.798968 159.551143 
L 703.309548 159.971945 
L 703.820127 160.183114 
L 704.330706 160.183114 
L 704.841286 159.971945 
L 705.351865 159.551143 
L 706.117734 158.534064 
L 706.883604 157.069802 
L 707.904762 154.467402 
L 708.925921 151.202199 
L 710.20237 146.367305 
L 712.244687 137.60819 
L 714.542295 127.934267 
L 715.818743 123.450285 
L 716.839902 120.602255 
L 717.605771 118.96117 
L 718.371641 117.75499 
L 719.13751 116.960659 
L 719.903379 116.522254 
L 720.669248 116.350516 
L 722.966855 116.101521 
L 723.477435 115.789763 
L 723.988014 115.271737 
L 724.498594 114.496943 
L 725.009173 113.418714 
L 725.775042 111.14462 
L 726.540911 107.991447 
L 727.306781 103.902467 
L 728.327939 97.006815 
L 729.604388 86.359646 
L 731.646706 66.726113 
L 733.178444 52.658301 
L 734.199603 44.987197 
L 734.965472 40.611466 
L 735.731341 37.663577 
L 736.241921 36.568332 
L 736.49721 36.292555 
L 736.49721 36.292555 
" clip-path="url(#p81c0a7464a)" style="fill: none; stroke: #000000; stroke-width: 5; stroke-linecap: square"/>
   </g>
   <g id="patch_16">
    <path d="M 540.69 166.41 
L 540.69 30 
" style="fill: none; stroke: #000000; stroke-width: 0.8; stroke-linejoin: miter; stroke-linecap: square"/>
   </g>
   <g id="patch_17">
    <path d="M 736.7525 166.41 
L 736.7525 30 
" style="fill: none; stroke: #000000; stroke-width: 0.8; stroke-linejoin: miter; stroke-linecap: square"/>
   </g>
   <g id="patch_18">
    <path d="M 540.69 166.41 
L 736.7525 166.41 
" style="fill: none; stroke: #000000; stroke-width: 0.8; stroke-linejoin: miter; stroke-linecap: square"/>
   </g>
   <g id="patch_19">
    <path d="M 540.69 30 
L 736.7525 30 
" style="fill: none; stroke: #000000; stroke-width: 0.8; stroke-linejoin: miter; stroke-linecap: square"/>
   </g>
   <g id="text_32">
    <!-- $q^3(t)$ -->
    <g transform="translate(622.41125 24) scale(0.14 -0.14)">
     <use xlink:href="#DejaVuSans-Oblique-71" transform="translate(0 0.765625)"/>
     <use xlink:href="#DejaVuSans-33" transform="translate(68.126458 39.046875) scale(0.7)"/>
     <use xlink:href="#DejaVuSans-28" transform="translate(115.396966 0.765625)"/>
     <use xlink:href="#DejaVuSans-Oblique-74" transform="translate(154.410638 0.765625)"/>
     <use xlink:href="#DejaVuSans-29" transform="translate(193.619622 0.765625)"/>
    </g>
   </g>
  </g>
  <g id="axes_4">
   <g id="patch_20">
    <path d="M 797.5725 166.41 
L 993.635 166.41 
L 993.635 30 
L 797.5725 30 
z
" style="fill: #ffffff"/>
   </g>
   <g id="patch_21">
    <path d="M 806.484432 166.41 
L 836.190871 166.41 
L 836.190871 140.936611 
L 806.484432 140.936611 
z
" clip-path="url(#pe26965783d)" style="fill: #1d3557; stroke: #1d3557; stroke-linejoin: miter"/>
   </g>
   <g id="patch_22">
    <path d="M 880.75053 166.41 
L 910.45697 166.41 
L 910.45697 36.495714 
L 880.75053 36.495714 
z
" clip-path="url(#pe26965783d)" style="fill: #1d3557; stroke: #1d3557; stroke-linejoin: miter"/>
   </g>
   <g id="patch_23">
    <path d="M 955.016629 166.41 
L 984.723068 166.41 
L 984.723068 140.809244 
L 955.016629 140.809244 
z
" clip-path="url(#pe26965783d)" style="fill: #1d3557; stroke: #1d3557; stroke-linejoin: miter"/>
   </g>
   <g id="matplotlib.axis_7">
    <g id="xtick_14">
     <g id="line2d_29">
      <g>
       <use xlink:href="#m363402e92f" x="821.337652" y="166.41" style="stroke: #000000; stroke-width: 0.8"/>
      </g>
     </g>
     <g id="text_33">
      <!-- 1.0 -->
      <g transform="translate(813.386089 181.008437) scale(0.1 -0.1)">
       <use xlink:href="#DejaVuSans-31"/>
       <use xlink:href="#DejaVuSans-2e" transform="translate(63.623047 0)"/>
       <use xlink:href="#DejaVuSans-30" transform="translate(95.410156 0)"/>
      </g>
     </g>
    </g>
    <g id="xtick_15">
     <g id="line2d_30">
      <g>
       <use xlink:href="#m363402e92f" x="858.470701" y="166.41" style="stroke: #000000; stroke-width: 0.8"/>
      </g>
     </g>
     <g id="text_34">
      <!-- 1.5 -->
      <g transform="translate(850.519138 181.008437) scale(0.1 -0.1)">
       <use xlink:href="#DejaVuSans-31"/>
       <use xlink:href="#DejaVuSans-2e" transform="translate(63.623047 0)"/>
       <use xlink:href="#DejaVuSans-35" transform="translate(95.410156 0)"/>
      </g>
     </g>
    </g>
    <g id="xtick_16">
     <g id="line2d_31">
      <g>
       <use xlink:href="#m363402e92f" x="895.60375" y="166.41" style="stroke: #000000; stroke-width: 0.8"/>
      </g>
     </g>
     <g id="text_35">
      <!-- 2.0 -->
      <g transform="translate(887.652187 181.008437) scale(0.1 -0.1)">
       <use xlink:href="#DejaVuSans-32"/>
       <use xlink:href="#DejaVuSans-2e" transform="translate(63.623047 0)"/>
       <use xlink:href="#DejaVuSans-30" transform="translate(95.410156 0)"/>
      </g>
     </g>
    </g>
    <g id="xtick_17">
     <g id="line2d_32">
      <g>
       <use xlink:href="#m363402e92f" x="932.736799" y="166.41" style="stroke: #000000; stroke-width: 0.8"/>
      </g>
     </g>
     <g id="text_36">
      <!-- 2.5 -->
      <g transform="translate(924.785237 181.008437) scale(0.1 -0.1)">
       <use xlink:href="#DejaVuSans-32"/>
       <use xlink:href="#DejaVuSans-2e" transform="translate(63.623047 0)"/>
       <use xlink:href="#DejaVuSans-35" transform="translate(95.410156 0)"/>
      </g>
     </g>
    </g>
    <g id="xtick_18">
     <g id="line2d_33">
      <g>
       <use xlink:href="#m363402e92f" x="969.869848" y="166.41" style="stroke: #000000; stroke-width: 0.8"/>
      </g>
     </g>
     <g id="text_37">
      <!-- 3.0 -->
      <g transform="translate(961.918286 181.008437) scale(0.1 -0.1)">
       <use xlink:href="#DejaVuSans-33"/>
       <use xlink:href="#DejaVuSans-2e" transform="translate(63.623047 0)"/>
       <use xlink:href="#DejaVuSans-30" transform="translate(95.410156 0)"/>
      </g>
     </g>
    </g>
    <g id="text_38">
     <!-- k -->
     <g transform="translate(892.129375 196.20625) scale(0.12 -0.12)">
      <use xlink:href="#DejaVuSans-6b"/>
     </g>
    </g>
   </g>
   <g id="matplotlib.axis_8">
    <g id="ytick_14">
     <g id="line2d_34">
      <g>
       <use xlink:href="#m9c40f68ee4" x="797.5725" y="166.41" style="stroke: #000000; stroke-width: 0.8"/>
      </g>
     </g>
     <g id="text_39">
      <!-- 0.00 -->
      <g transform="translate(768.306875 170.209219) scale(0.1 -0.1)">
       <use xlink:href="#DejaVuSans-30"/>
       <use xlink:href="#DejaVuSans-2e" transform="translate(63.623047 0)"/>
       <use xlink:href="#DejaVuSans-30" transform="translate(95.410156 0)"/>
       <use xlink:href="#DejaVuSans-30" transform="translate(159.033203 0)"/>
      </g>
     </g>
    </g>
    <g id="ytick_15">
     <g id="line2d_35">
      <g>
       <use xlink:href="#m9c40f68ee4" x="797.5725" y="138.586266" style="stroke: #000000; stroke-width: 0.8"/>
      </g>
     </g>
     <g id="text_40">
      <!-- 0.01 -->
      <g transform="translate(768.306875 142.385485) scale(0.1 -0.1)">
       <use xlink:href="#DejaVuSans-30"/>
       <use xlink:href="#DejaVuSans-2e" transform="translate(63.623047 0)"/>
       <use xlink:href="#DejaVuSans-30" transform="translate(95.410156 0)"/>
       <use xlink:href="#DejaVuSans-31" transform="translate(159.033203 0)"/>
      </g>
     </g>
    </g>
    <g id="ytick_16">
     <g id="line2d_36">
      <g>
       <use xlink:href="#m9c40f68ee4" x="797.5725" y="110.762532" style="stroke: #000000; stroke-width: 0.8"/>
      </g>
     </g>
     <g id="text_41">
      <!-- 0.02 -->
      <g transform="translate(768.306875 114.561751) scale(0.1 -0.1)">
       <use xlink:href="#DejaVuSans-30"/>
       <use xlink:href="#DejaVuSans-2e" transform="translate(63.623047 0)"/>
       <use xlink:href="#DejaVuSans-30" transform="translate(95.410156 0)"/>
       <use xlink:href="#DejaVuSans-32" transform="translate(159.033203 0)"/>
      </g>
     </g>
    </g>
    <g id="ytick_17">
     <g id="line2d_37">
      <g>
       <use xlink:href="#m9c40f68ee4" x="797.5725" y="82.938798" style="stroke: #000000; stroke-width: 0.8"/>
      </g>
     </g>
     <g id="text_42">
      <!-- 0.03 -->
      <g transform="translate(768.306875 86.738017) scale(0.1 -0.1)">
       <use xlink:href="#DejaVuSans-30"/>
       <use xlink:href="#DejaVuSans-2e" transform="translate(63.623047 0)"/>
       <use xlink:href="#DejaVuSans-30" transform="translate(95.410156 0)"/>
       <use xlink:href="#DejaVuSans-33" transform="translate(159.033203 0)"/>
      </g>
     </g>
    </g>
    <g id="ytick_18">
     <g id="line2d_38">
      <g>
       <use xlink:href="#m9c40f68ee4" x="797.5725" y="55.115064" style="stroke: #000000; stroke-width: 0.8"/>
      </g>
     </g>
     <g id="text_43">
      <!-- 0.04 -->
      <g transform="translate(768.306875 58.914282) scale(0.1 -0.1)">
       <use xlink:href="#DejaVuSans-30"/>
       <use xlink:href="#DejaVuSans-2e" transform="translate(63.623047 0)"/>
       <use xlink:href="#DejaVuSans-30" transform="translate(95.410156 0)"/>
       <use xlink:href="#DejaVuSans-34" transform="translate(159.033203 0)"/>
      </g>
     </g>
    </g>
   </g>
   <g id="patch_24">
    <path d="M 797.5725 166.41 
L 797.5725 30 
" style="fill: none; stroke: #000000; stroke-width: 0.8; stroke-linejoin: miter; stroke-linecap: square"/>
   </g>
   <g id="patch_25">
    <path d="M 993.635 166.41 
L 993.635 30 
" style="fill: none; stroke: #000000; stroke-width: 0.8; stroke-linejoin: miter; stroke-linecap: square"/>
   </g>
   <g id="patch_26">
    <path d="M 797.5725 166.41 
L 993.635 166.41 
" style="fill: none; stroke: #000000; stroke-width: 0.8; stroke-linejoin: miter; stroke-linecap: square"/>
   </g>
   <g id="patch_27">
    <path d="M 797.5725 30 
L 993.635 30 
" style="fill: none; stroke: #000000; stroke-width: 0.8; stroke-linejoin: miter; stroke-linecap: square"/>
   </g>
   <g id="text_44">
    <!-- $\widehat{q^3}(k)$ -->
    <g transform="translate(877.96375 24) scale(0.14 -0.14)">
     <defs>
      <path id="STIXSizeThreeSym-Regular-302" d="M -960 3610 
L -1939 3610 
L -5632 4538 
L -9325 3610 
L -10304 3610 
L -5786 4973 
L -5478 4973 
L -960 3610 
z
" transform="scale(0.015625)"/>
     </defs>
     <use xlink:href="#STIXSizeThreeSym-Regular-302" transform="translate(142.036742 58.609375) scale(0.79039)"/>
     <use xlink:href="#DejaVuSans-Oblique-71" transform="translate(0 0.4375)"/>
     <use xlink:href="#DejaVuSans-33" transform="translate(68.126458 38.71875) scale(0.7)"/>
     <use xlink:href="#DejaVuSans-28" transform="translate(115.396966 0.4375)"/>
     <use xlink:href="#DejaVuSans-Oblique-6b" transform="translate(154.410638 0.4375)"/>
     <use xlink:href="#DejaVuSans-29" transform="translate(212.320794 0.4375)"/>
    </g>
   </g>
  </g>
 </g>
 <defs>
  <clipPath id="pdcec062d37">
   <rect x="26.925" y="30" width="196.0625" height="136.41"/>
  </clipPath>
  <clipPath id="p1debcd35ae">
   <rect x="283.8075" y="30" width="196.0625" height="136.41"/>
  </clipPath>
  <clipPath id="p81c0a7464a">
   <rect x="540.69" y="30" width="196.0625" height="136.41"/>
  </clipPath>
  <clipPath id="pe26965783d">
   <rect x="797.5725" y="30" width="196.0625" height="136.41"/>
  </clipPath>
 </defs>
</svg>
