<?xml version="1.0" encoding="utf-8" standalone="no"?>
<!DOCTYPE svg PUBLIC "-//W3C//DTD SVG 1.1//EN"
  "http://www.w3.org/Graphics/SVG/1.1/DTD/svg11.dtd">
<svg xmlns:xlink="http://www.w3.org/1999/xlink" width="282.23625pt" height="254.686595pt" viewBox="0 0 282.23625 254.686595" xmlns="http://www.w3.org/2000/svg" version="1.1">
 <metadata>
  <rdf:RDF xmlns:dc="http://purl.org/dc/elements/1.1/" xmlns:cc="http://creativecommons.org/ns#" xmlns:rdf="http://www.w3.org/1999/02/22-rdf-syntax-ns#">
   <cc:Work>
    <dc:type rdf:resource="http://purl.org/dc/dcmitype/StillImage"/>
    <dc:date>2026-03-06T20:06:24.959353</dc:date>
    <dc:format>image/svg+xml</dc:format>
    <dc:creator>
     <cc:Agent>
      <dc:title>Matplotlib v3.10.5, https://matplotlib.org/</dc:title>
     </cc:Agent>
    </dc:creator>
   </cc:Work>
  </rdf:RDF>
 </metadata>
 <defs>
  <style type="text/css">*{stroke-linejoin: round; stroke-linecap: butt}</style>
 </defs>
 <g id="figure_1">
  <g id="patch_1">
   <path d="M 0 254.686595 
L 282.23625 254.686595 
L 282.23625 0 
L 0 0 
z
" style="fill: #ffffff"/>
  </g>
  <g id="axes_1">
   <g id="patch_2">
    <path d="M 241.6425 135.256 
C 241.6425 122.775462 239.184106 110.416281 234.408011 98.885767 
C 229.631915 87.355253 222.631002 76.877645 213.805928 68.052572 
C 204.980855 59.227498 194.503247 52.226585 182.972733 47.450489 
C 171.442219 42.674394 159.083038 40.216 146.6025 40.216 
C 134.121962 40.216 121.762781 42.674394 110.232267 47.450489 
C 98.701753 52.226585 88.224145 59.227498 79.399072 68.052572 
C 70.573998 76.877645 63.573085 87.355253 58.796989 98.885767 
C 54.020894 110.416281 51.5625 122.775462 51.5625 135.256 
C 51.5625 147.736538 54.020894 160.095719 58.796989 171.626233 
C 63.573085 183.156747 70.573998 193.634355 79.399072 202.459428 
C 88.224145 211.284502 98.701753 218.285415 110.232267 223.061511 
C 121.762781 227.837606 134.121962 230.296 146.6025 230.296 
C 159.083038 230.296 171.442219 227.837606 182.972733 223.061511 
C 194.503247 218.285415 204.980855 211.284502 213.805928 202.459428 
C 222.631002 193.634355 229.631915 183.156747 234.408011 171.626233 
C 239.184106 160.095719 241.6425 147.736538 241.6425 135.256 
M 146.6025 135.256 
C 146.6025 135.256 146.6025 135.256 146.6025 135.256 
C 146.6025 135.256 146.6025 135.256 146.6025 135.256 
C 146.6025 135.256 146.6025 135.256 146.6025 135.256 
C 146.6025 135.256 146.6025 135.256 146.6025 135.256 
C 146.6025 135.256 146.6025 135.256 146.6025 135.256 
C 146.6025 135.256 146.6025 135.256 146.6025 135.256 
C 146.6025 135.256 146.6025 135.256 146.6025 135.256 
C 146.6025 135.256 146.6025 135.256 146.6025 135.256 
C 146.6025 135.256 146.6025 135.256 146.6025 135.256 
C 146.6025 135.256 146.6025 135.256 146.6025 135.256 
C 146.6025 135.256 146.6025 135.256 146.6025 135.256 
C 146.6025 135.256 146.6025 135.256 146.6025 135.256 
C 146.6025 135.256 146.6025 135.256 146.6025 135.256 
C 146.6025 135.256 146.6025 135.256 146.6025 135.256 
C 146.6025 135.256 146.6025 135.256 146.6025 135.256 
C 146.6025 135.256 146.6025 135.256 146.6025 135.256 
z
" style="fill: #ffffff"/>
   </g>
   <g id="patch_3">
    <path d="M 220.863698 135.256 
L 148.722782 131.583564 
L 108.148045 68.65093 
L 136.307222 135.256 
L 132.374813 159.899076 
L 188.453343 207.743787 
z
" clip-path="url(#pd5dcf39368)" style="fill: #1d3557; opacity: 0.2; stroke: #1d3557; stroke-linejoin: miter"/>
   </g>
   <g id="patch_4">
    <path d="M 232.43123 135.256 
L 160.830187 110.612924 
L 102.316181 58.549845 
L 125.503408 135.256 
L 132.374813 159.899076 
L 191.128418 212.377153 
z
" clip-path="url(#pd5dcf39368)" style="fill: #e63946; opacity: 0.2; stroke: #e63946; stroke-linejoin: miter"/>
   </g>
   <g id="matplotlib.axis_1">
    <g id="xtick_1">
     <g id="line2d_1">
      <path d="M 146.6025 135.256 
L 241.6425 135.256 
" clip-path="url(#pd5dcf39368)" style="fill: none; stroke: #b0b0b0; stroke-width: 0.8; stroke-linecap: square"/>
     </g>
     <g id="text_1">
      <!-- MAE -->
      <g transform="translate(253.24875 138.015375) scale(0.1 -0.1)">
       <defs>
        <path id="DejaVuSans-4d" d="M 628 4666 
L 1569 4666 
L 2759 1491 
L 3956 4666 
L 4897 4666 
L 4897 0 
L 4281 0 
L 4281 4097 
L 3078 897 
L 2444 897 
L 1241 4097 
L 1241 0 
L 628 0 
L 628 4666 
z
" transform="scale(0.015625)"/>
        <path id="DejaVuSans-41" d="M 2188 4044 
L 1331 1722 
L 3047 1722 
L 2188 4044 
z
M 1831 4666 
L 2547 4666 
L 4325 0 
L 3669 0 
L 3244 1197 
L 1141 1197 
L 716 0 
L 50 0 
L 1831 4666 
z
" transform="scale(0.015625)"/>
        <path id="DejaVuSans-45" d="M 628 4666 
L 3578 4666 
L 3578 4134 
L 1259 4134 
L 1259 2753 
L 3481 2753 
L 3481 2222 
L 1259 2222 
L 1259 531 
L 3634 531 
L 3634 0 
L 628 0 
L 628 4666 
z
" transform="scale(0.015625)"/>
       </defs>
       <use xlink:href="#DejaVuSans-4d"/>
       <use xlink:href="#DejaVuSans-41" transform="translate(86.279297 0)"/>
       <use xlink:href="#DejaVuSans-45" transform="translate(154.6875 0)"/>
      </g>
     </g>
    </g>
    <g id="xtick_2">
     <g id="line2d_2">
      <path d="M 146.6025 135.256 
L 194.1225 52.948946 
" clip-path="url(#pd5dcf39368)" style="fill: none; stroke: #b0b0b0; stroke-width: 0.8; stroke-linecap: square"/>
     </g>
     <g id="text_2">
      <!-- MSE -->
      <g transform="translate(194.724844 36.222749) scale(0.1 -0.1)">
       <defs>
        <path id="DejaVuSans-53" d="M 3425 4513 
L 3425 3897 
Q 3066 4069 2747 4153 
Q 2428 4238 2131 4238 
Q 1616 4238 1336 4038 
Q 1056 3838 1056 3469 
Q 1056 3159 1242 3001 
Q 1428 2844 1947 2747 
L 2328 2669 
Q 3034 2534 3370 2195 
Q 3706 1856 3706 1288 
Q 3706 609 3251 259 
Q 2797 -91 1919 -91 
Q 1588 -91 1214 -16 
Q 841 59 441 206 
L 441 856 
Q 825 641 1194 531 
Q 1563 422 1919 422 
Q 2459 422 2753 634 
Q 3047 847 3047 1241 
Q 3047 1584 2836 1778 
Q 2625 1972 2144 2069 
L 1759 2144 
Q 1053 2284 737 2584 
Q 422 2884 422 3419 
Q 422 4038 858 4394 
Q 1294 4750 2059 4750 
Q 2388 4750 2728 4690 
Q 3069 4631 3425 4513 
z
" transform="scale(0.015625)"/>
       </defs>
       <use xlink:href="#DejaVuSans-4d"/>
       <use xlink:href="#DejaVuSans-53" transform="translate(86.279297 0)"/>
       <use xlink:href="#DejaVuSans-45" transform="translate(149.755859 0)"/>
      </g>
     </g>
    </g>
    <g id="xtick_3">
     <g id="line2d_3">
      <path d="M 146.6025 135.256 
L 99.0825 52.948946 
" clip-path="url(#pd5dcf39368)" style="fill: none; stroke: #b0b0b0; stroke-width: 0.8; stroke-linecap: square"/>
     </g>
     <g id="text_3">
      <!-- RMSE -->
      <g transform="translate(73.710625 36.222749) scale(0.1 -0.1)">
       <defs>
        <path id="DejaVuSans-52" d="M 2841 2188 
Q 3044 2119 3236 1894 
Q 3428 1669 3622 1275 
L 4263 0 
L 3584 0 
L 2988 1197 
Q 2756 1666 2539 1819 
Q 2322 1972 1947 1972 
L 1259 1972 
L 1259 0 
L 628 0 
L 628 4666 
L 2053 4666 
Q 2853 4666 3247 4331 
Q 3641 3997 3641 3322 
Q 3641 2881 3436 2590 
Q 3231 2300 2841 2188 
z
M 1259 4147 
L 1259 2491 
L 2053 2491 
Q 2509 2491 2742 2702 
Q 2975 2913 2975 3322 
Q 2975 3731 2742 3939 
Q 2509 4147 2053 4147 
L 1259 4147 
z
" transform="scale(0.015625)"/>
       </defs>
       <use xlink:href="#DejaVuSans-52"/>
       <use xlink:href="#DejaVuSans-4d" transform="translate(69.482422 0)"/>
       <use xlink:href="#DejaVuSans-53" transform="translate(155.761719 0)"/>
       <use xlink:href="#DejaVuSans-45" transform="translate(219.238281 0)"/>
      </g>
     </g>
    </g>
    <g id="xtick_4">
     <g id="line2d_4">
      <path d="M 146.6025 135.256 
L 51.5625 135.256 
" clip-path="url(#pd5dcf39368)" style="fill: none; stroke: #b0b0b0; stroke-width: 0.8; stroke-linecap: square"/>
     </g>
     <g id="text_4">
      <!-- Cosine -->
      <g transform="translate(12.272656 132.416469) scale(0.1 -0.1)">
       <defs>
        <path id="DejaVuSans-43" d="M 4122 4306 
L 4122 3641 
Q 3803 3938 3442 4084 
Q 3081 4231 2675 4231 
Q 1875 4231 1450 3742 
Q 1025 3253 1025 2328 
Q 1025 1406 1450 917 
Q 1875 428 2675 428 
Q 3081 428 3442 575 
Q 3803 722 4122 1019 
L 4122 359 
Q 3791 134 3420 21 
Q 3050 -91 2638 -91 
Q 1578 -91 968 557 
Q 359 1206 359 2328 
Q 359 3453 968 4101 
Q 1578 4750 2638 4750 
Q 3056 4750 3426 4639 
Q 3797 4528 4122 4306 
z
" transform="scale(0.015625)"/>
        <path id="DejaVuSans-6f" d="M 1959 3097 
Q 1497 3097 1228 2736 
Q 959 2375 959 1747 
Q 959 1119 1226 758 
Q 1494 397 1959 397 
Q 2419 397 2687 759 
Q 2956 1122 2956 1747 
Q 2956 2369 2687 2733 
Q 2419 3097 1959 3097 
z
M 1959 3584 
Q 2709 3584 3137 3096 
Q 3566 2609 3566 1747 
Q 3566 888 3137 398 
Q 2709 -91 1959 -91 
Q 1206 -91 779 398 
Q 353 888 353 1747 
Q 353 2609 779 3096 
Q 1206 3584 1959 3584 
z
" transform="scale(0.015625)"/>
        <path id="DejaVuSans-73" d="M 2834 3397 
L 2834 2853 
Q 2591 2978 2328 3040 
Q 2066 3103 1784 3103 
Q 1356 3103 1142 2972 
Q 928 2841 928 2578 
Q 928 2378 1081 2264 
Q 1234 2150 1697 2047 
L 1894 2003 
Q 2506 1872 2764 1633 
Q 3022 1394 3022 966 
Q 3022 478 2636 193 
Q 2250 -91 1575 -91 
Q 1294 -91 989 -36 
Q 684 19 347 128 
L 347 722 
Q 666 556 975 473 
Q 1284 391 1588 391 
Q 1994 391 2212 530 
Q 2431 669 2431 922 
Q 2431 1156 2273 1281 
Q 2116 1406 1581 1522 
L 1381 1569 
Q 847 1681 609 1914 
Q 372 2147 372 2553 
Q 372 3047 722 3315 
Q 1072 3584 1716 3584 
Q 2034 3584 2315 3537 
Q 2597 3491 2834 3397 
z
" transform="scale(0.015625)"/>
        <path id="DejaVuSans-69" d="M 603 3500 
L 1178 3500 
L 1178 0 
L 603 0 
L 603 3500 
z
M 603 4863 
L 1178 4863 
L 1178 4134 
L 603 4134 
L 603 4863 
z
" transform="scale(0.015625)"/>
        <path id="DejaVuSans-6e" d="M 3513 2113 
L 3513 0 
L 2938 0 
L 2938 2094 
Q 2938 2591 2744 2837 
Q 2550 3084 2163 3084 
Q 1697 3084 1428 2787 
Q 1159 2491 1159 1978 
L 1159 0 
L 581 0 
L 581 3500 
L 1159 3500 
L 1159 2956 
Q 1366 3272 1645 3428 
Q 1925 3584 2291 3584 
Q 2894 3584 3203 3211 
Q 3513 2838 3513 2113 
z
" transform="scale(0.015625)"/>
        <path id="DejaVuSans-65" d="M 3597 1894 
L 3597 1613 
L 953 1613 
Q 991 1019 1311 708 
Q 1631 397 2203 397 
Q 2534 397 2845 478 
Q 3156 559 3463 722 
L 3463 178 
Q 3153 47 2828 -22 
Q 2503 -91 2169 -91 
Q 1331 -91 842 396 
Q 353 884 353 1716 
Q 353 2575 817 3079 
Q 1281 3584 2069 3584 
Q 2775 3584 3186 3129 
Q 3597 2675 3597 1894 
z
M 3022 2063 
Q 3016 2534 2758 2815 
Q 2500 3097 2075 3097 
Q 1594 3097 1305 2825 
Q 1016 2553 972 2059 
L 3022 2063 
z
" transform="scale(0.015625)"/>
       </defs>
       <use xlink:href="#DejaVuSans-43"/>
       <use xlink:href="#DejaVuSans-6f" transform="translate(69.824219 0)"/>
       <use xlink:href="#DejaVuSans-73" transform="translate(131.005859 0)"/>
       <use xlink:href="#DejaVuSans-69" transform="translate(183.105469 0)"/>
       <use xlink:href="#DejaVuSans-6e" transform="translate(210.888672 0)"/>
       <use xlink:href="#DejaVuSans-65" transform="translate(274.267578 0)"/>
      </g>
      <!-- Distance -->
      <g transform="translate(7.2 143.614281) scale(0.1 -0.1)">
       <defs>
        <path id="DejaVuSans-44" d="M 1259 4147 
L 1259 519 
L 2022 519 
Q 2988 519 3436 956 
Q 3884 1394 3884 2338 
Q 3884 3275 3436 3711 
Q 2988 4147 2022 4147 
L 1259 4147 
z
M 628 4666 
L 1925 4666 
Q 3281 4666 3915 4102 
Q 4550 3538 4550 2338 
Q 4550 1131 3912 565 
Q 3275 0 1925 0 
L 628 0 
L 628 4666 
z
" transform="scale(0.015625)"/>
        <path id="DejaVuSans-74" d="M 1172 4494 
L 1172 3500 
L 2356 3500 
L 2356 3053 
L 1172 3053 
L 1172 1153 
Q 1172 725 1289 603 
Q 1406 481 1766 481 
L 2356 481 
L 2356 0 
L 1766 0 
Q 1100 0 847 248 
Q 594 497 594 1153 
L 594 3053 
L 172 3053 
L 172 3500 
L 594 3500 
L 594 4494 
L 1172 4494 
z
" transform="scale(0.015625)"/>
        <path id="DejaVuSans-61" d="M 2194 1759 
Q 1497 1759 1228 1600 
Q 959 1441 959 1056 
Q 959 750 1161 570 
Q 1363 391 1709 391 
Q 2188 391 2477 730 
Q 2766 1069 2766 1631 
L 2766 1759 
L 2194 1759 
z
M 3341 1997 
L 3341 0 
L 2766 0 
L 2766 531 
Q 2569 213 2275 61 
Q 1981 -91 1556 -91 
Q 1019 -91 701 211 
Q 384 513 384 1019 
Q 384 1609 779 1909 
Q 1175 2209 1959 2209 
L 2766 2209 
L 2766 2266 
Q 2766 2663 2505 2880 
Q 2244 3097 1772 3097 
Q 1472 3097 1187 3025 
Q 903 2953 641 2809 
L 641 3341 
Q 956 3463 1253 3523 
Q 1550 3584 1831 3584 
Q 2591 3584 2966 3190 
Q 3341 2797 3341 1997 
z
" transform="scale(0.015625)"/>
        <path id="DejaVuSans-63" d="M 3122 3366 
L 3122 2828 
Q 2878 2963 2633 3030 
Q 2388 3097 2138 3097 
Q 1578 3097 1268 2742 
Q 959 2388 959 1747 
Q 959 1106 1268 751 
Q 1578 397 2138 397 
Q 2388 397 2633 464 
Q 2878 531 3122 666 
L 3122 134 
Q 2881 22 2623 -34 
Q 2366 -91 2075 -91 
Q 1284 -91 818 406 
Q 353 903 353 1747 
Q 353 2603 823 3093 
Q 1294 3584 2113 3584 
Q 2378 3584 2631 3529 
Q 2884 3475 3122 3366 
z
" transform="scale(0.015625)"/>
       </defs>
       <use xlink:href="#DejaVuSans-44"/>
       <use xlink:href="#DejaVuSans-69" transform="translate(77.001953 0)"/>
       <use xlink:href="#DejaVuSans-73" transform="translate(104.785156 0)"/>
       <use xlink:href="#DejaVuSans-74" transform="translate(156.884766 0)"/>
       <use xlink:href="#DejaVuSans-61" transform="translate(196.09375 0)"/>
       <use xlink:href="#DejaVuSans-6e" transform="translate(257.373047 0)"/>
       <use xlink:href="#DejaVuSans-63" transform="translate(320.751953 0)"/>
       <use xlink:href="#DejaVuSans-65" transform="translate(375.732422 0)"/>
      </g>
     </g>
    </g>
    <g id="xtick_5">
     <g id="line2d_5">
      <path d="M 146.6025 135.256 
L 99.0825 217.563054 
" clip-path="url(#pd5dcf39368)" style="fill: none; stroke: #b0b0b0; stroke-width: 0.8; stroke-linecap: square"/>
     </g>
     <g id="text_5">
      <!-- $1-$R$^2$ -->
      <g transform="translate(72.5825 239.808001) scale(0.1 -0.1)">
       <defs>
        <path id="DejaVuSans-31" d="M 794 531 
L 1825 531 
L 1825 4091 
L 703 3866 
L 703 4441 
L 1819 4666 
L 2450 4666 
L 2450 531 
L 3481 531 
L 3481 0 
L 794 0 
L 794 531 
z
" transform="scale(0.015625)"/>
        <path id="DejaVuSans-2212" d="M 678 2272 
L 4684 2272 
L 4684 1741 
L 678 1741 
L 678 2272 
z
" transform="scale(0.015625)"/>
        <path id="DejaVuSans-32" d="M 1228 531 
L 3431 531 
L 3431 0 
L 469 0 
L 469 531 
Q 828 903 1448 1529 
Q 2069 2156 2228 2338 
Q 2531 2678 2651 2914 
Q 2772 3150 2772 3378 
Q 2772 3750 2511 3984 
Q 2250 4219 1831 4219 
Q 1534 4219 1204 4116 
Q 875 4013 500 3803 
L 500 4441 
Q 881 4594 1212 4672 
Q 1544 4750 1819 4750 
Q 2544 4750 2975 4387 
Q 3406 4025 3406 3419 
Q 3406 3131 3298 2873 
Q 3191 2616 2906 2266 
Q 2828 2175 2409 1742 
Q 1991 1309 1228 531 
z
" transform="scale(0.015625)"/>
       </defs>
       <use xlink:href="#DejaVuSans-31" transform="translate(0 0.765625)"/>
       <use xlink:href="#DejaVuSans-2212" transform="translate(83.105469 0.765625)"/>
       <use xlink:href="#DejaVuSans-52" transform="translate(186.376953 0.765625)"/>
       <use xlink:href="#DejaVuSans-32" transform="translate(256.816406 39.046875) scale(0.7)"/>
      </g>
     </g>
    </g>
    <g id="xtick_6">
     <g id="line2d_6">
      <path d="M 146.6025 135.256 
L 194.1225 217.563054 
" clip-path="url(#pd5dcf39368)" style="fill: none; stroke: #b0b0b0; stroke-width: 0.8; stroke-linecap: square"/>
     </g>
     <g id="text_6">
      <!-- Relative -->
      <g transform="translate(185.208437 234.209095) scale(0.1 -0.1)">
       <defs>
        <path id="DejaVuSans-6c" d="M 603 4863 
L 1178 4863 
L 1178 0 
L 603 0 
L 603 4863 
z
" transform="scale(0.015625)"/>
        <path id="DejaVuSans-76" d="M 191 3500 
L 800 3500 
L 1894 563 
L 2988 3500 
L 3597 3500 
L 2284 0 
L 1503 0 
L 191 3500 
z
" transform="scale(0.015625)"/>
       </defs>
       <use xlink:href="#DejaVuSans-52"/>
       <use xlink:href="#DejaVuSans-65" transform="translate(64.982422 0)"/>
       <use xlink:href="#DejaVuSans-6c" transform="translate(126.505859 0)"/>
       <use xlink:href="#DejaVuSans-61" transform="translate(154.289062 0)"/>
       <use xlink:href="#DejaVuSans-74" transform="translate(215.568359 0)"/>
       <use xlink:href="#DejaVuSans-69" transform="translate(254.777344 0)"/>
       <use xlink:href="#DejaVuSans-76" transform="translate(282.560547 0)"/>
       <use xlink:href="#DejaVuSans-65" transform="translate(341.740234 0)"/>
      </g>
      <!-- L$^2$ Norm -->
      <g transform="translate(184.8225 245.406907) scale(0.1 -0.1)">
       <defs>
        <path id="DejaVuSans-4c" d="M 628 4666 
L 1259 4666 
L 1259 531 
L 3531 531 
L 3531 0 
L 628 0 
L 628 4666 
z
" transform="scale(0.015625)"/>
        <path id="DejaVuSans-20" transform="scale(0.015625)"/>
        <path id="DejaVuSans-4e" d="M 628 4666 
L 1478 4666 
L 3547 763 
L 3547 4666 
L 4159 4666 
L 4159 0 
L 3309 0 
L 1241 3903 
L 1241 0 
L 628 0 
L 628 4666 
z
" transform="scale(0.015625)"/>
        <path id="DejaVuSans-72" d="M 2631 2963 
Q 2534 3019 2420 3045 
Q 2306 3072 2169 3072 
Q 1681 3072 1420 2755 
Q 1159 2438 1159 1844 
L 1159 0 
L 581 0 
L 581 3500 
L 1159 3500 
L 1159 2956 
Q 1341 3275 1631 3429 
Q 1922 3584 2338 3584 
Q 2397 3584 2469 3576 
Q 2541 3569 2628 3553 
L 2631 2963 
z
" transform="scale(0.015625)"/>
        <path id="DejaVuSans-6d" d="M 3328 2828 
Q 3544 3216 3844 3400 
Q 4144 3584 4550 3584 
Q 5097 3584 5394 3201 
Q 5691 2819 5691 2113 
L 5691 0 
L 5113 0 
L 5113 2094 
Q 5113 2597 4934 2840 
Q 4756 3084 4391 3084 
Q 3944 3084 3684 2787 
Q 3425 2491 3425 1978 
L 3425 0 
L 2847 0 
L 2847 2094 
Q 2847 2600 2669 2842 
Q 2491 3084 2119 3084 
Q 1678 3084 1418 2786 
Q 1159 2488 1159 1978 
L 1159 0 
L 581 0 
L 581 3500 
L 1159 3500 
L 1159 2956 
Q 1356 3278 1631 3431 
Q 1906 3584 2284 3584 
Q 2666 3584 2933 3390 
Q 3200 3197 3328 2828 
z
" transform="scale(0.015625)"/>
       </defs>
       <use xlink:href="#DejaVuSans-4c" transform="translate(0 0.765625)"/>
       <use xlink:href="#DejaVuSans-32" transform="translate(56.669922 39.046875) scale(0.7)"/>
       <use xlink:href="#DejaVuSans-20" transform="translate(103.94043 0.765625)"/>
       <use xlink:href="#DejaVuSans-4e" transform="translate(135.727539 0.765625)"/>
       <use xlink:href="#DejaVuSans-6f" transform="translate(210.532227 0.765625)"/>
       <use xlink:href="#DejaVuSans-72" transform="translate(271.713867 0.765625)"/>
       <use xlink:href="#DejaVuSans-6d" transform="translate(312.827148 0.765625)"/>
      </g>
     </g>
    </g>
   </g>
   <g id="matplotlib.axis_2">
    <g id="ytick_1">
     <g id="line2d_7">
      <path d="M 150.324989 135.256 
C 150.324989 134.767167 150.2287 134.283088 150.041631 133.831465 
C 149.854563 133.379843 149.580354 132.96946 149.234697 132.623803 
C 148.88904 132.278146 148.478657 132.003937 148.027035 131.816869 
C 147.575412 131.6298 147.091333 131.533511 146.6025 131.533511 
C 146.113667 131.533511 145.629588 131.6298 145.177965 131.816869 
C 144.726343 132.003937 144.31596 132.278146 143.970303 132.623803 
C 143.624646 132.96946 143.350437 133.379843 143.163369 133.831465 
C 142.9763 134.283088 142.880011 134.767167 142.880011 135.256 
C 142.880011 135.744833 142.9763 136.228912 143.163369 136.680535 
C 143.350437 137.132157 143.624646 137.54254 143.970303 137.888197 
C 144.31596 138.233854 144.726343 138.508063 145.177965 138.695131 
C 145.629588 138.8822 146.113667 138.978489 146.6025 138.978489 
C 147.091333 138.978489 147.575412 138.8822 148.027035 138.695131 
C 148.478657 138.508063 148.88904 138.233854 149.234697 137.888197 
C 149.580354 137.54254 149.854563 137.132157 150.041631 136.680535 
C 150.2287 136.228912 150.324989 135.744833 150.324989 135.256 
" clip-path="url(#pd5dcf39368)" style="fill: none; stroke: #b0b0b0; stroke-width: 0.8; stroke-linecap: square"/>
     </g>
     <g id="text_7">
      <!-- $\mathdefault{10^{-6}}$ -->
      <g transform="translate(150.041631 131.751778) scale(0.1 -0.1)">
       <defs>
        <path id="DejaVuSans-30" d="M 2034 4250 
Q 1547 4250 1301 3770 
Q 1056 3291 1056 2328 
Q 1056 1369 1301 889 
Q 1547 409 2034 409 
Q 2525 409 2770 889 
Q 3016 1369 3016 2328 
Q 3016 3291 2770 3770 
Q 2525 4250 2034 4250 
z
M 2034 4750 
Q 2819 4750 3233 4129 
Q 3647 3509 3647 2328 
Q 3647 1150 3233 529 
Q 2819 -91 2034 -91 
Q 1250 -91 836 529 
Q 422 1150 422 2328 
Q 422 3509 836 4129 
Q 1250 4750 2034 4750 
z
" transform="scale(0.015625)"/>
        <path id="DejaVuSans-36" d="M 2113 2584 
Q 1688 2584 1439 2293 
Q 1191 2003 1191 1497 
Q 1191 994 1439 701 
Q 1688 409 2113 409 
Q 2538 409 2786 701 
Q 3034 994 3034 1497 
Q 3034 2003 2786 2293 
Q 2538 2584 2113 2584 
z
M 3366 4563 
L 3366 3988 
Q 3128 4100 2886 4159 
Q 2644 4219 2406 4219 
Q 1781 4219 1451 3797 
Q 1122 3375 1075 2522 
Q 1259 2794 1537 2939 
Q 1816 3084 2150 3084 
Q 2853 3084 3261 2657 
Q 3669 2231 3669 1497 
Q 3669 778 3244 343 
Q 2819 -91 2113 -91 
Q 1303 -91 875 529 
Q 447 1150 447 2328 
Q 447 3434 972 4092 
Q 1497 4750 2381 4750 
Q 2619 4750 2861 4703 
Q 3103 4656 3366 4563 
z
" transform="scale(0.015625)"/>
       </defs>
       <use xlink:href="#DejaVuSans-31" transform="translate(0 0.765625)"/>
       <use xlink:href="#DejaVuSans-30" transform="translate(63.623047 0.765625)"/>
       <use xlink:href="#DejaVuSans-2212" transform="translate(128.203125 39.046875) scale(0.7)"/>
       <use xlink:href="#DejaVuSans-36" transform="translate(186.855469 39.046875) scale(0.7)"/>
      </g>
     </g>
    </g>
    <g id="ytick_2">
     <g id="line2d_8">
      <path d="M 174.645957 135.256 
C 174.645957 131.573367 173.920559 127.926543 172.511276 124.524233 
C 171.101994 121.121924 169.036234 118.030296 166.432219 115.426281 
C 163.828204 112.822266 160.736576 110.756506 157.334267 109.347224 
C 153.931957 107.937941 150.285133 107.212543 146.6025 107.212543 
C 142.919867 107.212543 139.273043 107.937941 135.870733 109.347224 
C 132.468424 110.756506 129.376796 112.822266 126.772781 115.426281 
C 124.168766 118.030296 122.103006 121.121924 120.693724 124.524233 
C 119.284441 127.926543 118.559043 131.573367 118.559043 135.256 
C 118.559043 138.938633 119.284441 142.585457 120.693724 145.987767 
C 122.103006 149.390076 124.168766 152.481704 126.772781 155.085719 
C 129.376796 157.689734 132.468424 159.755494 135.870733 161.164776 
C 139.273043 162.574059 142.919867 163.299457 146.6025 163.299457 
C 150.285133 163.299457 153.931957 162.574059 157.334267 161.164776 
C 160.736576 159.755494 163.828204 157.689734 166.432219 155.085719 
C 169.036234 152.481704 171.101994 149.390076 172.511276 145.987767 
C 173.920559 142.585457 174.645957 138.938633 174.645957 135.256 
" clip-path="url(#pd5dcf39368)" style="fill: none; stroke: #b0b0b0; stroke-width: 0.8; stroke-linecap: square"/>
     </g>
     <g id="text_8">
      <!-- $\mathdefault{10^{-5}}$ -->
      <g transform="translate(172.511276 122.444546) scale(0.1 -0.1)">
       <defs>
        <path id="DejaVuSans-35" d="M 691 4666 
L 3169 4666 
L 3169 4134 
L 1269 4134 
L 1269 2991 
Q 1406 3038 1543 3061 
Q 1681 3084 1819 3084 
Q 2600 3084 3056 2656 
Q 3513 2228 3513 1497 
Q 3513 744 3044 326 
Q 2575 -91 1722 -91 
Q 1428 -91 1123 -41 
Q 819 9 494 109 
L 494 744 
Q 775 591 1075 516 
Q 1375 441 1709 441 
Q 2250 441 2565 725 
Q 2881 1009 2881 1497 
Q 2881 1984 2565 2268 
Q 2250 2553 1709 2553 
Q 1456 2553 1204 2497 
Q 953 2441 691 2322 
L 691 4666 
z
" transform="scale(0.015625)"/>
       </defs>
       <use xlink:href="#DejaVuSans-31" transform="translate(0 0.684375)"/>
       <use xlink:href="#DejaVuSans-30" transform="translate(63.623047 0.684375)"/>
       <use xlink:href="#DejaVuSans-2212" transform="translate(128.203125 38.965625) scale(0.7)"/>
       <use xlink:href="#DejaVuSans-35" transform="translate(186.855469 38.965625) scale(0.7)"/>
      </g>
     </g>
    </g>
    <g id="ytick_3">
     <g id="line2d_9">
      <path d="M 198.966926 135.256 
C 198.966926 128.379567 197.612418 121.569998 194.980921 115.217002 
C 192.349424 108.864006 188.492113 103.091132 183.629741 98.228759 
C 178.767368 93.366387 172.994494 89.509076 166.641498 86.877579 
C 160.288502 84.246082 153.478933 82.891574 146.6025 82.891574 
C 139.726067 82.891574 132.916498 84.246082 126.563502 86.877579 
C 120.210506 89.509076 114.437632 93.366387 109.575259 98.228759 
C 104.712887 103.091132 100.855576 108.864006 98.224079 115.217002 
C 95.592582 121.569998 94.238074 128.379567 94.238074 135.256 
C 94.238074 142.132433 95.592582 148.942002 98.224079 155.294998 
C 100.855576 161.647994 104.712887 167.420868 109.575259 172.283241 
C 114.437632 177.145613 120.210506 181.002924 126.563502 183.634421 
C 132.916498 186.265918 139.726067 187.620426 146.6025 187.620426 
C 153.478933 187.620426 160.288502 186.265918 166.641498 183.634421 
C 172.994494 181.002924 178.767368 177.145613 183.629741 172.283241 
C 188.492113 167.420868 192.349424 161.647994 194.980921 155.294998 
C 197.612418 148.942002 198.966926 142.132433 198.966926 135.256 
" clip-path="url(#pd5dcf39368)" style="fill: none; stroke: #b0b0b0; stroke-width: 0.8; stroke-linecap: square"/>
     </g>
     <g id="text_9">
      <!-- $\mathdefault{10^{-4}}$ -->
      <g transform="translate(194.980921 113.137314) scale(0.1 -0.1)">
       <defs>
        <path id="DejaVuSans-34" d="M 2419 4116 
L 825 1625 
L 2419 1625 
L 2419 4116 
z
M 2253 4666 
L 3047 4666 
L 3047 1625 
L 3713 1625 
L 3713 1100 
L 3047 1100 
L 3047 0 
L 2419 0 
L 2419 1100 
L 313 1100 
L 313 1709 
L 2253 4666 
z
" transform="scale(0.015625)"/>
       </defs>
       <use xlink:href="#DejaVuSans-31" transform="translate(0 0.684375)"/>
       <use xlink:href="#DejaVuSans-30" transform="translate(63.623047 0.684375)"/>
       <use xlink:href="#DejaVuSans-2212" transform="translate(128.203125 38.965625) scale(0.7)"/>
       <use xlink:href="#DejaVuSans-34" transform="translate(186.855469 38.965625) scale(0.7)"/>
      </g>
     </g>
    </g>
    <g id="ytick_4">
     <g id="line2d_10">
      <path d="M 223.287894 135.256 
C 223.287894 125.185766 221.304278 115.213453 217.450566 105.90977 
C 213.596854 96.606087 207.947993 88.151968 200.827262 81.031238 
C 193.706532 73.910507 185.252413 68.261646 175.94873 64.407934 
C 166.645047 60.554222 156.672734 58.570606 146.6025 58.570606 
C 136.532266 58.570606 126.559953 60.554222 117.25627 64.407934 
C 107.952587 68.261646 99.498468 73.910507 92.377738 81.031238 
C 85.257007 88.151968 79.608146 96.606087 75.754434 105.90977 
C 71.900722 115.213453 69.917106 125.185766 69.917106 135.256 
C 69.917106 145.326234 71.900722 155.298547 75.754434 164.60223 
C 79.608146 173.905913 85.257007 182.360032 92.377738 189.480762 
C 99.498468 196.601493 107.952587 202.250354 117.25627 206.104066 
C 126.559953 209.957778 136.532266 211.941394 146.6025 211.941394 
C 156.672734 211.941394 166.645047 209.957778 175.94873 206.104066 
C 185.252413 202.250354 193.706532 196.601493 200.827262 189.480762 
C 207.947993 182.360032 213.596854 173.905913 217.450566 164.60223 
C 221.304278 155.298547 223.287894 145.326234 223.287894 135.256 
" clip-path="url(#pd5dcf39368)" style="fill: none; stroke: #b0b0b0; stroke-width: 0.8; stroke-linecap: square"/>
     </g>
     <g id="text_10">
      <!-- $\mathdefault{10^{-3}}$ -->
      <g transform="translate(217.450566 103.830083) scale(0.1 -0.1)">
       <defs>
        <path id="DejaVuSans-33" d="M 2597 2516 
Q 3050 2419 3304 2112 
Q 3559 1806 3559 1356 
Q 3559 666 3084 287 
Q 2609 -91 1734 -91 
Q 1441 -91 1130 -33 
Q 819 25 488 141 
L 488 750 
Q 750 597 1062 519 
Q 1375 441 1716 441 
Q 2309 441 2620 675 
Q 2931 909 2931 1356 
Q 2931 1769 2642 2001 
Q 2353 2234 1838 2234 
L 1294 2234 
L 1294 2753 
L 1863 2753 
Q 2328 2753 2575 2939 
Q 2822 3125 2822 3475 
Q 2822 3834 2567 4026 
Q 2313 4219 1838 4219 
Q 1578 4219 1281 4162 
Q 984 4106 628 3988 
L 628 4550 
Q 988 4650 1302 4700 
Q 1616 4750 1894 4750 
Q 2613 4750 3031 4423 
Q 3450 4097 3450 3541 
Q 3450 3153 3228 2886 
Q 3006 2619 2597 2516 
z
" transform="scale(0.015625)"/>
       </defs>
       <use xlink:href="#DejaVuSans-31" transform="translate(0 0.765625)"/>
       <use xlink:href="#DejaVuSans-30" transform="translate(63.623047 0.765625)"/>
       <use xlink:href="#DejaVuSans-2212" transform="translate(128.203125 39.046875) scale(0.7)"/>
       <use xlink:href="#DejaVuSans-33" transform="translate(186.855469 39.046875) scale(0.7)"/>
      </g>
     </g>
    </g>
    <g id="ytick_5"/>
    <g id="ytick_6"/>
    <g id="ytick_7"/>
    <g id="ytick_8"/>
    <g id="ytick_9"/>
    <g id="ytick_10"/>
    <g id="ytick_11"/>
    <g id="ytick_12"/>
    <g id="ytick_13"/>
    <g id="ytick_14"/>
    <g id="ytick_15"/>
    <g id="ytick_16"/>
    <g id="ytick_17"/>
    <g id="ytick_18"/>
    <g id="ytick_19"/>
    <g id="ytick_20"/>
    <g id="ytick_21"/>
    <g id="ytick_22"/>
    <g id="ytick_23"/>
    <g id="ytick_24"/>
    <g id="ytick_25"/>
    <g id="ytick_26"/>
    <g id="ytick_27"/>
    <g id="ytick_28"/>
    <g id="ytick_29"/>
    <g id="ytick_30"/>
    <g id="ytick_31"/>
    <g id="ytick_32"/>
    <g id="ytick_33"/>
    <g id="ytick_34"/>
   </g>
   <g id="line2d_11">
    <path d="M 220.863698 135.256 
L 148.722782 131.583564 
L 108.148045 68.65093 
L 136.307222 135.256 
L 132.374813 159.899076 
L 188.453343 207.743787 
L 220.863698 135.256 
" clip-path="url(#pd5dcf39368)" style="fill: none; stroke: #1d3557; stroke-width: 1.5; stroke-linecap: square"/>
    <defs>
     <path id="mc37e7031e2" d="M 0 3 
C 0.795609 3 1.55874 2.683901 2.12132 2.12132 
C 2.683901 1.55874 3 0.795609 3 0 
C 3 -0.795609 2.683901 -1.55874 2.12132 -2.12132 
C 1.55874 -2.683901 0.795609 -3 0 -3 
C -0.795609 -3 -1.55874 -2.683901 -2.12132 -2.12132 
C -2.683901 -1.55874 -3 -0.795609 -3 0 
C -3 0.795609 -2.683901 1.55874 -2.12132 2.12132 
C -1.55874 2.683901 -0.795609 3 0 3 
z
" style="stroke: #1d3557"/>
    </defs>
    <g clip-path="url(#pd5dcf39368)">
     <use xlink:href="#mc37e7031e2" x="220.863698" y="135.256" style="fill: #1d3557; stroke: #1d3557"/>
     <use xlink:href="#mc37e7031e2" x="148.722782" y="131.583564" style="fill: #1d3557; stroke: #1d3557"/>
     <use xlink:href="#mc37e7031e2" x="108.148045" y="68.65093" style="fill: #1d3557; stroke: #1d3557"/>
     <use xlink:href="#mc37e7031e2" x="136.307222" y="135.256" style="fill: #1d3557; stroke: #1d3557"/>
     <use xlink:href="#mc37e7031e2" x="132.374813" y="159.899076" style="fill: #1d3557; stroke: #1d3557"/>
     <use xlink:href="#mc37e7031e2" x="188.453343" y="207.743787" style="fill: #1d3557; stroke: #1d3557"/>
     <use xlink:href="#mc37e7031e2" x="220.863698" y="135.256" style="fill: #1d3557; stroke: #1d3557"/>
    </g>
   </g>
   <g id="line2d_12">
    <path d="M 232.43123 135.256 
L 160.830187 110.612924 
L 102.316181 58.549845 
L 125.503408 135.256 
L 132.374813 159.899076 
L 191.128418 212.377153 
L 232.43123 135.256 
" clip-path="url(#pd5dcf39368)" style="fill: none; stroke: #e63946; stroke-width: 1.5; stroke-linecap: square"/>
    <defs>
     <path id="mbe0e72728e" d="M 0 3 
C 0.795609 3 1.55874 2.683901 2.12132 2.12132 
C 2.683901 1.55874 3 0.795609 3 0 
C 3 -0.795609 2.683901 -1.55874 2.12132 -2.12132 
C 1.55874 -2.683901 0.795609 -3 0 -3 
C -0.795609 -3 -1.55874 -2.683901 -2.12132 -2.12132 
C -2.683901 -1.55874 -3 -0.795609 -3 0 
C -3 0.795609 -2.683901 1.55874 -2.12132 2.12132 
C -1.55874 2.683901 -0.795609 3 0 3 
z
" style="stroke: #e63946"/>
    </defs>
    <g clip-path="url(#pd5dcf39368)">
     <use xlink:href="#mbe0e72728e" x="232.43123" y="135.256" style="fill: #e63946; stroke: #e63946"/>
     <use xlink:href="#mbe0e72728e" x="160.830187" y="110.612924" style="fill: #e63946; stroke: #e63946"/>
     <use xlink:href="#mbe0e72728e" x="102.316181" y="58.549845" style="fill: #e63946; stroke: #e63946"/>
     <use xlink:href="#mbe0e72728e" x="125.503408" y="135.256" style="fill: #e63946; stroke: #e63946"/>
     <use xlink:href="#mbe0e72728e" x="132.374813" y="159.899076" style="fill: #e63946; stroke: #e63946"/>
     <use xlink:href="#mbe0e72728e" x="191.128418" y="212.377153" style="fill: #e63946; stroke: #e63946"/>
     <use xlink:href="#mbe0e72728e" x="232.43123" y="135.256" style="fill: #e63946; stroke: #e63946"/>
    </g>
   </g>
   <g id="patch_5">
    <path d="M 241.6425 135.256 
C 241.6425 122.775462 239.184106 110.416281 234.408011 98.885767 
C 229.631915 87.355253 222.631002 76.877645 213.805928 68.052572 
C 204.980855 59.227498 194.503247 52.226585 182.972733 47.450489 
C 171.442219 42.674394 159.083038 40.216 146.6025 40.216 
C 134.121962 40.216 121.762781 42.674394 110.232267 47.450489 
C 98.701753 52.226585 88.224145 59.227498 79.399072 68.052572 
C 70.573998 76.877645 63.573085 87.355253 58.796989 98.885767 
C 54.020894 110.416281 51.5625 122.775462 51.5625 135.256 
C 51.5625 147.736538 54.020894 160.095719 58.796989 171.626233 
C 63.573085 183.156747 70.573998 193.634355 79.399072 202.459428 
C 88.224145 211.284502 98.701753 218.285415 110.232267 223.061511 
C 121.762781 227.837606 134.121962 230.296 146.6025 230.296 
C 159.083038 230.296 171.442219 227.837606 182.972733 223.061511 
C 194.503247 218.285415 204.980855 211.284502 213.805928 202.459428 
C 222.631002 193.634355 229.631915 183.156747 234.408011 171.626233 
C 239.184106 160.095719 241.6425 147.736538 241.6425 135.256 
" style="fill: none; stroke: #000000; stroke-width: 0.8; stroke-linejoin: miter; stroke-linecap: square"/>
   </g>
   <g id="legend_1">
    <g id="patch_6">
     <path d="M 69.610313 24.878125 
L 223.594688 24.878125 
Q 225.594688 24.878125 225.594688 22.878125 
L 225.594688 9.2 
Q 225.594688 7.2 223.594688 7.2 
L 69.610313 7.2 
Q 67.610313 7.2 67.610313 9.2 
L 67.610313 22.878125 
Q 67.610313 24.878125 69.610313 24.878125 
z
" style="fill: #ffffff; opacity: 0.8; stroke: #cccccc; stroke-linejoin: miter"/>
    </g>
    <g id="line2d_13">
     <path d="M 71.610313 15.298437 
L 81.610313 15.298437 
L 91.610313 15.298437 
" style="fill: none; stroke: #1d3557; stroke-width: 1.5; stroke-linecap: square"/>
     <g>
      <use xlink:href="#mc37e7031e2" x="81.610313" y="15.298437" style="fill: #1d3557; stroke: #1d3557"/>
     </g>
    </g>
    <g id="text_11">
     <!-- raw -->
     <g transform="translate(99.610313 18.798437) scale(0.1 -0.1)">
      <defs>
       <path id="DejaVuSans-77" d="M 269 3500 
L 844 3500 
L 1563 769 
L 2278 3500 
L 2956 3500 
L 3675 769 
L 4391 3500 
L 4966 3500 
L 4050 0 
L 3372 0 
L 2619 2869 
L 1863 0 
L 1184 0 
L 269 3500 
z
" transform="scale(0.015625)"/>
      </defs>
      <use xlink:href="#DejaVuSans-72"/>
      <use xlink:href="#DejaVuSans-61" transform="translate(41.113281 0)"/>
      <use xlink:href="#DejaVuSans-77" transform="translate(102.392578 0)"/>
     </g>
    </g>
    <g id="line2d_14">
     <path d="M 138.0275 15.298437 
L 148.0275 15.298437 
L 158.0275 15.298437 
" style="fill: none; stroke: #e63946; stroke-width: 1.5; stroke-linecap: square"/>
     <g>
      <use xlink:href="#mbe0e72728e" x="148.0275" y="15.298437" style="fill: #e63946; stroke: #e63946"/>
     </g>
    </g>
    <g id="text_12">
     <!-- normalized -->
     <g transform="translate(166.0275 18.798437) scale(0.1 -0.1)">
      <defs>
       <path id="DejaVuSans-7a" d="M 353 3500 
L 3084 3500 
L 3084 2975 
L 922 459 
L 3084 459 
L 3084 0 
L 275 0 
L 275 525 
L 2438 3041 
L 353 3041 
L 353 3500 
z
" transform="scale(0.015625)"/>
       <path id="DejaVuSans-64" d="M 2906 2969 
L 2906 4863 
L 3481 4863 
L 3481 0 
L 2906 0 
L 2906 525 
Q 2725 213 2448 61 
Q 2172 -91 1784 -91 
Q 1150 -91 751 415 
Q 353 922 353 1747 
Q 353 2572 751 3078 
Q 1150 3584 1784 3584 
Q 2172 3584 2448 3432 
Q 2725 3281 2906 2969 
z
M 947 1747 
Q 947 1113 1208 752 
Q 1469 391 1925 391 
Q 2381 391 2643 752 
Q 2906 1113 2906 1747 
Q 2906 2381 2643 2742 
Q 2381 3103 1925 3103 
Q 1469 3103 1208 2742 
Q 947 2381 947 1747 
z
" transform="scale(0.015625)"/>
      </defs>
      <use xlink:href="#DejaVuSans-6e"/>
      <use xlink:href="#DejaVuSans-6f" transform="translate(63.378906 0)"/>
      <use xlink:href="#DejaVuSans-72" transform="translate(124.560547 0)"/>
      <use xlink:href="#DejaVuSans-6d" transform="translate(163.923828 0)"/>
      <use xlink:href="#DejaVuSans-61" transform="translate(261.335938 0)"/>
      <use xlink:href="#DejaVuSans-6c" transform="translate(322.615234 0)"/>
      <use xlink:href="#DejaVuSans-69" transform="translate(350.398438 0)"/>
      <use xlink:href="#DejaVuSans-7a" transform="translate(378.181641 0)"/>
      <use xlink:href="#DejaVuSans-65" transform="translate(430.671875 0)"/>
      <use xlink:href="#DejaVuSans-64" transform="translate(492.195312 0)"/>
     </g>
    </g>
   </g>
  </g>
 </g>
 <defs>
  <clipPath id="pd5dcf39368">
   <path d="M 241.6425 135.256 
C 241.6425 122.775462 239.184106 110.416281 234.408011 98.885767 
C 229.631915 87.355253 222.631002 76.877645 213.805928 68.052572 
C 204.980855 59.227498 194.503247 52.226585 182.972733 47.450489 
C 171.442219 42.674394 159.083038 40.216 146.6025 40.216 
C 134.121962 40.216 121.762781 42.674394 110.232267 47.450489 
C 98.701753 52.226585 88.224145 59.227498 79.399072 68.052572 
C 70.573998 76.877645 63.573085 87.355253 58.796989 98.885767 
C 54.020894 110.416281 51.5625 122.775462 51.5625 135.256 
C 51.5625 147.736538 54.020894 160.095719 58.796989 171.626233 
C 63.573085 183.156747 70.573998 193.634355 79.399072 202.459428 
C 88.224145 211.284502 98.701753 218.285415 110.232267 223.061511 
C 121.762781 227.837606 134.121962 230.296 146.6025 230.296 
C 159.083038 230.296 171.442219 227.837606 182.972733 223.061511 
C 194.503247 218.285415 204.980855 211.284502 213.805928 202.459428 
C 222.631002 193.634355 229.631915 183.156747 234.408011 171.626233 
C 239.184106 160.095719 241.6425 147.736538 241.6425 135.256 
M 146.6025 135.256 
C 146.6025 135.256 146.6025 135.256 146.6025 135.256 
C 146.6025 135.256 146.6025 135.256 146.6025 135.256 
C 146.6025 135.256 146.6025 135.256 146.6025 135.256 
C 146.6025 135.256 146.6025 135.256 146.6025 135.256 
C 146.6025 135.256 146.6025 135.256 146.6025 135.256 
C 146.6025 135.256 146.6025 135.256 146.6025 135.256 
C 146.6025 135.256 146.6025 135.256 146.6025 135.256 
C 146.6025 135.256 146.6025 135.256 146.6025 135.256 
C 146.6025 135.256 146.6025 135.256 146.6025 135.256 
C 146.6025 135.256 146.6025 135.256 146.6025 135.256 
C 146.6025 135.256 146.6025 135.256 146.6025 135.256 
C 146.6025 135.256 146.6025 135.256 146.6025 135.256 
C 146.6025 135.256 146.6025 135.256 146.6025 135.256 
C 146.6025 135.256 146.6025 135.256 146.6025 135.256 
C 146.6025 135.256 146.6025 135.256 146.6025 135.256 
C 146.6025 135.256 146.6025 135.256 146.6025 135.256 
z
"/>
  </clipPath>
 </defs>
</svg>
